<?xml version="1.0" encoding="UTF-8" standalone="no"?>
<svg
   xmlns:dc="http://purl.org/dc/elements/1.1/"
   xmlns:cc="http://creativecommons.org/ns#"
   xmlns:rdf="http://www.w3.org/1999/02/22-rdf-syntax-ns#"
   xmlns:svg="http://www.w3.org/2000/svg"
   xmlns="http://www.w3.org/2000/svg"
   xmlns:sodipodi="http://sodipodi.sourceforge.net/DTD/sodipodi-0.dtd"
   xmlns:inkscape="http://www.inkscape.org/namespaces/inkscape"
   version="1.1"
   id="svg364"
   width="1126.6667"
   height="678.66669"
   viewBox="0 0 1126.6667 678.66669"
   sodipodi:docname="hauteurs max.svg"
   inkscape:version="1.0.2 (e86c870879, 2021-01-15, custom)">
  <metadata
     id="metadata370">
    <rdf:RDF>
      <cc:Work
         rdf:about="">
        <dc:format>image/svg+xml</dc:format>
        <dc:type
           rdf:resource="http://purl.org/dc/dcmitype/StillImage" />
        <dc:title></dc:title>
      </cc:Work>
    </rdf:RDF>
  </metadata>
  <defs
     id="defs368" />
  <sodipodi:namedview
     pagecolor="#ffffff"
     bordercolor="#666666"
     borderopacity="1"
     objecttolerance="10"
     gridtolerance="10"
     guidetolerance="10"
     inkscape:pageopacity="0"
     inkscape:pageshadow="2"
     inkscape:window-width="2560"
     inkscape:window-height="1024"
     id="namedview366"
     showgrid="false"
     inkscape:zoom="1.2362475"
     inkscape:cx="674.07298"
     inkscape:cy="266.40268"
     inkscape:window-x="1920"
     inkscape:window-y="28"
     inkscape:window-maximized="1"
     inkscape:current-layer="g372" />
  <g
     inkscape:groupmode="layer"
     inkscape:label="Image"
     id="g372">
    <g
       id="g376">
      <path
         style="fill:#b6c7c9;stroke-width:1.33333"
         d="m 595.66668,612.45031 c 0.91667,-0.36988 2.41667,-0.36988 3.33334,0 0.91666,0.36988 0.16666,0.67252 -1.66667,0.67252 -1.83333,0 -2.58333,-0.30264 -1.66667,-0.67252 z m -1.33333,-4 c 0.91667,-0.36988 2.41667,-0.36988 3.33333,0 0.91667,0.36988 0.16667,0.67252 -1.66666,0.67252 -1.83334,0 -2.58334,-0.30264 -1.66667,-0.67252 z m -88.56206,-24.11685 c 54.87421,-0.19276 144.27421,-0.19273 198.66668,5e-5 54.39247,0.19279 9.49538,0.3505 -99.77129,0.35047 -109.26667,-4e-5 -153.76959,-0.15777 -98.89539,-0.35052 z m 0,-4 c 54.87421,-0.19276 144.27421,-0.19273 198.66668,5e-5 54.39247,0.19279 9.49538,0.3505 -99.77129,0.35047 -109.26667,-4e-5 -153.76959,-0.15777 -98.89539,-0.35052 z m 294.24915,-3.92141 c -0.0321,-2.49587 2.71941,-3.55211 4.42909,-1.70024 1.19944,1.29917 1.13937,1.44552 -0.26524,0.64633 -1.0754,-0.61187 -2.29028,-0.28388 -2.97959,0.80439 -0.76518,1.20809 -1.17084,1.29356 -1.18426,0.24952 z m -80.67765,-72.39677 c -0.46712,-0.75581 0.0681,-0.97933 1.25464,-0.52401 2.3099,0.88639 2.73252,1.84208 0.81462,1.84208 -0.69006,0 -1.62123,-0.59313 -2.06926,-1.31807 z m -7.2375,-10.12637 c 0.064,-1.55327 0.37992,-1.8692 0.80554,-0.80556 0.38516,0.96249 0.3378,2.11251 -0.1052,2.55556 -0.44305,0.44305 -0.75818,-0.34445 -0.70029,-1.75 z m 7.31378,-11.61307 c 0.50071,-1.31496 1.24626,-2.05496 1.65678,-1.64444 0.41052,0.41052 8.5e-4,1.48639 -0.91038,2.39084 -1.31682,1.30702 -1.46997,1.15387 -0.7464,-0.7464 z m -150.80721,-6.36453 c -0.48338,-0.78212 -0.51879,-1.78212 -0.0787,-2.22223 0.44011,-0.44009 0.80019,-0.036 0.80019,0.89803 0,0.98699 0.86661,1.36565 2.06925,0.90416 1.18656,-0.45532 1.72176,-0.2318 1.25464,0.52401 -1.06703,1.7265 -2.94391,1.67826 -4.04539,-0.104 z M 336.7524,473.72419 c -0.72358,-1.90027 -0.57043,-2.05341 0.7464,-0.7464 0.91122,0.90445 1.32089,1.98032 0.91037,2.39084 -0.41052,0.41052 -1.15607,-0.32948 -1.65677,-1.64444 z m -10.82419,-1.84035 c -0.49272,-0.79724 -0.35669,-1.98866 0.30227,-2.64762 0.70858,-0.70859 1.1981,-0.1164 1.1981,1.44952 0,3.02964 -0.24668,3.22661 -1.50037,1.1981 z m 626.8242,-5.608 c 0.50071,-1.31496 1.24626,-2.05496 1.65678,-1.64444 0.41052,0.41052 8.5e-4,1.48639 -0.91038,2.39084 -1.31682,1.30702 -1.46997,1.15387 -0.7464,-0.7464 z m -614.84764,-2.27582 c 0,-1.72699 0.4508,-2.17778 1.31429,-1.31428 0.86348,0.86348 0.86348,1.76508 0,2.62856 -0.86349,0.86349 -1.31429,0.4127 -1.31429,-1.31428 z m 323.76192,0.33357 c 40.15,-0.19599 105.85,-0.19599 146,0 40.15,0.19599 7.3,0.35633 -73,0.35633 -80.3,0 -113.15,-0.16034 -73,-0.35633 z m 287.49659,-4.00024 c -1.65849,-2.11475 -1.61133,-2.16191 0.50341,-0.50341 1.28334,1.00646 2.33334,2.05646 2.33334,2.33333 0,1.09739 -1.09492,0.39108 -2.83675,-1.82992 z m -79.52059,-59 c 0,-2.56667 0.2744,-3.61667 0.60978,-2.33334 0.33536,1.28334 0.33536,3.38334 0,4.66667 -0.33538,1.28333 -0.60978,0.23333 -0.60978,-2.33333 z m 3.9506,-0.66667 c 0.0272,-2.2 0.326,-2.93859 0.66406,-1.64129 0.33805,1.29729 0.31582,3.09729 -0.0495,4 -0.36524,0.9027 -0.64183,-0.15871 -0.61465,-2.35871 z m -0.15466,-9.44444 c 0.064,-1.55327 0.37992,-1.8692 0.80554,-0.80556 0.38516,0.96249 0.3378,2.11251 -0.1052,2.55556 -0.44305,0.44305 -0.75818,-0.34445 -0.70029,-1.75 z m -385.15786,-9.08775 c 0.94559,-1.02604 1.92932,-1.66596 2.1861,-1.42204 0.79085,0.75128 -1.21352,3.28756 -2.59811,3.28756 -0.71897,0 -0.53356,-0.83948 0.41201,-1.86552 z M 109,372.33639 c 10.45,-0.22528 27.55,-0.22528 38,0 10.45,0.22528 1.9,0.4096 -19,0.4096 -20.9,0 -29.449997,-0.18432 -19,-0.4096 z m 84.16326,-1.33638 c -1.65849,-2.11474 -1.61133,-2.1619 0.50341,-0.50341 1.28334,1.00647 2.33334,2.05647 2.33334,2.33333 0,1.09739 -1.09492,0.39108 -2.83675,-1.82992 z m 53.35789,-0.60826 c 0.93964,-1.2512 1.26875,-3.0512 0.73138,-4 -0.78683,-1.38919 -0.6256,-1.39871 0.82806,-0.0489 1.50803,1.40031 1.38766,2.05867 -0.73137,4 -2.28371,2.09223 -2.36624,2.0971 -0.82807,0.0489 z m 241.47886,0.27493 -220.66667,-0.67851 220.25465,-0.32741 c 145.75236,-0.21667 220.53339,0.1236 221.0787,1.00592 0.45322,0.73333 0.63864,1.186 0.41202,1.00592 -0.22661,-0.18008 -99.71203,-0.63275 -221.0787,-1.00592 z m 226.08573,-1.72417 c 0.50071,-1.31496 1.24625,-2.05496 1.65677,-1.64444 0.41052,0.41052 8.6e-4,1.48638 -0.91037,2.39084 -1.31683,1.30701 -1.46997,1.15386 -0.7464,-0.7464 z m -589.56454,-0.60866 38.5212,-0.37534 -2.5212,-2.97926 -2.5212,-2.97924 3,2.53999 c 1.65,1.39699 3,3.04699 3,3.66667 0,0.61966 -17.55,0.98625 -39,0.81461 l -38.999997,-0.31207 z m 42.04455,-2.66717 -3.23241,-3.66667 3.66666,3.23242 c 3.42706,3.02118 4.27813,4.10092 3.23242,4.10092 -0.23883,0 -1.88883,-1.65 -3.66667,-3.66667 z m 641.87063,1.33349 c 43.87335,-0.195 115.27335,-0.19497 158.66668,8e-5 43.39334,0.19506 7.49697,0.35462 -79.7697,0.35456 -87.26667,-5e-5 -122.77031,-0.15964 -78.89698,-0.35464 z m -605.43637,-1.32749 c 7.15,-0.23975 18.85,-0.23975 26,0 7.15,0.23975 1.3,0.43589 -13,0.43589 -14.3,0 -20.15,-0.19614 -13,-0.43589 z m 62.33333,-0.26064 c 0,-0.69005 0.69271,-1.68276 1.53935,-2.20601 0.95232,-0.58858 1.17746,-0.36586 0.59041,0.58404 -0.71411,1.15544 53.76055,1.61985 220.12733,1.87664 l 221.07626,0.34122 -221.66668,0.32938 c -137.85385,0.20484 -221.66667,-0.14502 -221.66667,-0.92527 z m 445.16327,-2.41203 c -1.6585,-2.11474 -1.61134,-2.1619 0.50341,-0.50341 2.221,1.74183 2.92731,2.83675 1.82992,2.83675 -0.27687,0 -1.32687,-1.05 -2.33333,-2.33334 z m 18.8366,0 c -1.4e-4,-0.9047 112.00647,-0.89788 261.33349,0.016 31.1667,0.19074 -14.88334,0.49018 -102.33334,0.66542 -87.45,0.17525 -159.00007,-0.13134 -159.00015,-0.68136 z M 326.77194,320.55557 c 0.064,-1.55327 0.37992,-1.8692 0.80555,-0.80556 0.38516,0.96249 0.3378,2.11249 -0.1052,2.55556 -0.44307,0.44305 -0.75819,-0.34445 -0.70029,-1.75 z m 546.56142,-1.05897 c 0,-0.27687 1.05,-1.32687 2.33333,-2.33334 2.11475,-1.65849 2.16191,-1.61133 0.50342,0.50342 -1.74183,2.221 -2.83675,2.9273 -2.83675,1.82992 z m -553.22808,-6.94103 c 0.064,-1.55327 0.37992,-1.8692 0.80554,-0.80556 0.38516,0.96249 0.3378,2.11249 -0.1052,2.55556 -0.44306,0.44305 -0.75818,-0.34445 -0.70029,-1.75 z M 87.498055,311.2818 c -0.457263,-1.1916 -0.793354,-2.86748 -0.746871,-3.72418 0.04648,-0.85668 0.659373,-0.12053 1.361977,1.63596 0.702604,1.75647 1.038696,3.43235 0.74687,3.72418 -0.291826,0.29182 -0.904715,-0.44436 -1.361976,-1.63596 z m 97.501955,1.1685 c 0.91666,-0.36988 2.41666,-0.36988 3.33333,0 0.91667,0.36988 0.16667,0.67252 -1.66667,0.67252 -1.83333,0 -2.58333,-0.30264 -1.66666,-0.67252 z M 82.666669,302.16326 c 0,-0.27686 1.05,-1.32686 2.333334,-2.33333 2.114741,-1.65849 2.161901,-1.61133 0.503406,0.50341 -1.741825,2.221 -2.83674,2.92731 -2.83674,1.82992 z m 92.000001,-1.33333 c 0,-0.27687 1.05,-1.32687 2.33334,-2.33333 2.11474,-1.6585 2.1619,-1.61134 0.50341,0.50341 -1.74183,2.221 -2.83675,2.92731 -2.83675,1.82992 z m 481.08335,-11.07407 c 0.96249,-0.38516 2.11251,-0.3378 2.55556,0.1052 0.44305,0.44306 -0.34445,0.75819 -1.75,0.7003 -1.55327,-0.064 -1.8692,-0.37992 -0.80556,-0.80555 z m -88,-21.33333 c 0.96249,-0.38516 2.1125,-0.3378 2.55556,0.1052 0.44305,0.44305 -0.34446,0.75819 -1.75,0.70029 -1.55327,-0.064 -1.8692,-0.37992 -0.80556,-0.80554 z m -179.53949,-4.42252 c 0,-1.83333 0.30264,-2.58333 0.67252,-1.66667 0.36988,0.91667 0.36988,2.41667 0,3.33334 -0.36988,0.91666 -0.67252,0.16666 -0.67252,-1.66667 z m 179.78949,-0.0787 c 0,-0.77662 0.6,-1.0412 1.33333,-0.58798 0.73333,0.45323 1.33333,1.08864 1.33333,1.41203 0,0.32339 -0.6,0.58797 -1.33333,0.58797 -0.73333,0 -1.33333,-0.63541 -1.33333,-1.41202 z M 392.10528,261.8889 c 0.064,-1.55326 0.37992,-1.8692 0.80554,-0.80556 0.38516,0.9625 0.3378,2.1125 -0.1052,2.55556 -0.44305,0.44306 -0.75818,-0.34445 -0.70029,-1.75 z M 1084,262.16326 c 0,-0.27686 1.05,-1.32686 2.3334,-2.33333 2.1147,-1.65849 2.1619,-1.61133 0.5034,0.50341 -1.7418,2.221 -2.8368,2.92731 -2.8368,1.82992 z m -129.22804,-2.94102 c 0.064,-1.55327 0.37992,-1.8692 0.80555,-0.80556 0.38516,0.96249 0.3378,2.11249 -0.1052,2.55556 -0.44306,0.44305 -0.75819,-0.34446 -0.7003,-1.75 z M 70.416669,259.0892 c 0.9625,-0.38516 2.1125,-0.3378 2.555556,0.1052 0.443055,0.44305 -0.344446,0.75818 -1.75,0.70029 -1.553258,-0.064 -1.8692,-0.37992 -0.805556,-0.80555 z m 183.161841,-2.41688 c -0.83673,-1.83644 -1.00417,-3.33898 -0.37209,-3.33898 1.10713,0 3.10188,5.46948 2.29063,6.28075 -0.21847,0.21845 -1.0818,-1.10535 -1.91854,-2.94177 z m -91.16184,1.08354 c 0.96249,-0.38516 2.11249,-0.3378 2.55556,0.1052 0.44305,0.44306 -0.34445,0.75819 -1.75,0.7003 -1.55327,-0.064 -1.8692,-0.37992 -0.80556,-0.80555 z m 880.35533,-1.20029 c 0.064,-1.55327 0.3799,-1.8692 0.8055,-0.80556 0.3852,0.96249 0.3378,2.11249 -0.1052,2.55556 -0.443,0.44305 -0.7582,-0.34445 -0.7003,-1.75 z m -236.27539,-1.55556 c -1.65849,-2.11475 -1.61133,-2.16191 0.50341,-0.50341 2.221,1.74182 2.92731,2.83674 1.82992,2.83674 -0.27686,0 -1.32686,-1.05 -2.33333,-2.33333 z m -735.471232,0.076 c 1.297289,-0.33805 3.09729,-0.31583 4,0.0495 0.90271,0.36524 -0.158709,0.64182 -2.358709,0.61465 -2.2,-0.0272 -2.938582,-0.326 -1.641291,-0.66405 z M 1080.8743,252.60642 c 0.4062,-1.05844 1.2756,-1.59248 1.9321,-1.18674 1.6535,1.0219 1.5013,1.51029 -0.7385,2.36976 -1.2888,0.49456 -1.6862,0.10066 -1.1936,-1.18302 z M 869.33336,251.476 c 0,-0.28822 0.93116,-0.88134 2.06925,-1.31807 1.18656,-0.45532 1.72176,-0.2318 1.25464,0.52401 -0.78301,1.26695 -3.32389,1.87394 -3.32389,0.79406 z m -553.58335,-3.05347 c 0.96249,-0.38516 2.11249,-0.3378 2.55556,0.1052 0.44305,0.44305 -0.34445,0.75819 -1.75,0.70029 -1.55327,-0.064 -1.8692,-0.37992 -0.80556,-0.80554 z m 9.33333,0 c 0.9625,-0.38516 2.1125,-0.3378 2.55556,0.1052 0.44306,0.44305 -0.34445,0.75819 -1.75,0.70029 -1.55326,-0.064 -1.8692,-0.37992 -0.80556,-0.80554 z m 737.79386,-1.75585 c 0,-1.83334 0.3027,-2.58334 0.6725,-1.66667 0.3699,0.91667 0.3699,2.41667 0,3.33333 -0.3698,0.91667 -0.6725,0.16667 -0.6725,-1.66666 z M 1053,247.11697 c 0.9167,-0.36988 2.4167,-0.36988 3.3334,0 0.9166,0.36988 0.1666,0.67252 -1.6667,0.67252 -1.8333,0 -2.5833,-0.30264 -1.6667,-0.67252 z M 85.333336,243.4966 c 0,-0.27687 1.05,-1.32687 2.333333,-2.33334 2.114742,-1.65849 2.161902,-1.61133 0.503407,0.50341 -1.741825,2.22101 -2.83674,2.92731 -2.83674,1.82993 z m -5.023996,-7.49659 c 0,-2.56667 0.274393,-3.61667 0.609764,-2.33334 0.335369,1.28334 0.335369,3.38334 0,4.66667 -0.335371,1.28333 -0.609764,0.23333 -0.609764,-2.33333 z m 90.4626,1.88889 c 0.064,-1.55327 0.37992,-1.8692 0.80555,-0.80556 0.38516,0.96249 0.3378,2.11249 -0.1052,2.55556 -0.44307,0.44305 -0.75819,-0.34445 -0.7003,-1.75 z m 796.97809,1.20029 c 0.96249,-0.38516 2.11251,-0.3378 2.55556,0.1052 0.44305,0.44306 -0.34445,0.75819 -1.75,0.7003 -1.55327,-0.064 -1.8692,-0.37992 -0.80556,-0.80555 z m -800.87284,-3.08918 c 0,-1.83334 0.30264,-2.58334 0.67252,-1.66667 0.36988,0.91667 0.36988,2.41667 0,3.33333 -0.36988,0.91667 -0.67252,0.16667 -0.67252,-1.66666 z m 642.7161,-19.33334 c 0.0272,-2.2 0.326,-2.93858 0.66405,-1.64129 0.33806,1.29729 0.31583,3.09729 -0.0495,4 -0.36524,0.90271 -0.64183,-0.15871 -0.61466,-2.35871 z m -82.82134,-1.44444 c 0.064,-1.55326 0.37992,-1.8692 0.80555,-0.80556 0.38516,0.9625 0.3378,2.1125 -0.1052,2.55556 -0.44305,0.44306 -0.75819,-0.34445 -0.70029,-1.75 z m -158.16009,-0.64426 c -0.48338,-0.78212 -0.59291,-1.708 -0.2434,-2.05751 0.34949,-0.34951 0.99074,0.29041 1.425,1.42204 0.90157,2.34948 0.1332,2.76275 -1.1816,0.63547 z m 82.66667,0 c -0.48338,-0.78212 -0.51879,-1.78212 -0.0787,-2.22223 0.44011,-0.44009 0.80019,-0.036 0.80019,0.89803 0,0.98698 0.86661,1.36565 2.06925,0.90416 1.18656,-0.45532 1.72176,-0.2318 1.25464,0.52401 -1.06703,1.72649 -2.94391,1.67825 -4.04539,-0.104 z m -474.73854,-13.57796 -2.53998,-3 3,2.53998 c 2.81925,2.38696 3.60698,3.46002 2.53998,3.46002 -0.25301,0 -1.60301,-1.35 -3,-3 z m 386.66668,-2.66667 -2.53999,-3 3,2.53999 c 2.81926,2.38696 3.60699,3.46001 2.53999,3.46001 -0.25301,0 -1.60301,-1.35 -3,-3 z m 11.46001,-3 c 1.72234,-1.83333 3.43151,-3.33333 3.79818,-3.33333 0.36666,0 -0.74251,1.5 -2.46484,3.33333 -1.72234,1.83333 -3.43151,3.33333 -3.79818,3.33333 -0.36666,0 0.74251,-1.5 2.46484,-3.33333 z m 384.54,0.33333 -2.53999,-3 3.00001,2.53999 c 2.81925,2.38696 3.60698,3.46001 2.53998,3.46001 -0.25301,0 -1.60301,-1.35 -3,-3 z m -880.000027,-1.33333 -2.539984,-3 3,2.53999 c 2.81926,2.38696 3.606988,3.46001 2.539984,3.46001 -0.253009,0 -1.603009,-1.35 -3,-3 z m 334.793357,-1 c 1.32732,-1.46667 2.71331,-2.66667 3.07998,-2.66667 0.36666,0 -0.41932,1.2 -1.74664,2.66667 -1.32732,1.46667 -2.71331,2.66667 -3.07998,2.66667 -0.36666,0 0.41932,-1.2 1.74664,-2.66667 z m -332.767589,-2.33333 -3.232419,-3.66667 3.666667,3.23241 c 3.427052,3.02119 4.278118,4.10092 3.232419,4.10092 -0.238836,0 -1.888836,-1.65 -3.666667,-3.66666 z m 976.100979,-7.66667 c -3.2387,-3.3 -5.5886,-6 -5.2219,-6 0.3666,0 3.3165,2.7 6.5552,6 3.2387,3.3 5.5886,6 5.2219,6 -0.3667,0 -3.3165,-2.7 -6.5552,-6 z m -474.66672,2.91612 c 0,-0.22947 1.95,-2.17947 4.33334,-4.33333 l 4.33333,-3.91612 -3.91612,4.33333 c -3.65037,4.03928 -4.75055,4.9462 -4.75055,3.91612 z m 287.82993,-1.91612 c -1.65849,-2.11475 -1.61133,-2.16191 0.50342,-0.50341 2.221,1.74182 2.9273,2.83674 1.82992,2.83674 -0.27687,0 -1.32687,-1.05 -2.33334,-2.33333 z m -150.66667,-2.66667 c -1.65849,-2.11474 -1.61133,-2.1619 0.50341,-0.50341 1.28334,1.00647 2.33334,2.05647 2.33334,2.33333 0,1.09739 -1.09492,0.39108 -2.83675,-1.82992 z m 203.92009,1.42252 c 0.96249,-0.38516 2.1125,-0.3378 2.55556,0.1052 0.44305,0.44306 -0.34446,0.75819 -1.75,0.7003 -1.55327,-0.064 -1.8692,-0.37992 -0.80556,-0.80555 z m -542.51761,-4.08918 -3.23241,-3.66667 3.66667,3.23241 c 3.42705,3.02119 4.27812,4.10092 3.23241,4.10092 -0.23883,0 -1.88883,-1.65 -3.66667,-3.66666 z m 370.7676,-2.08388 c 0,-0.22947 1.95,-2.17947 4.33334,-4.33334 l 4.33333,-3.91612 -3.91612,4.33334 c -3.65037,4.03928 -4.75055,4.9462 -4.75055,3.91612 z m 110.49659,-1.91612 c -1.65849,-2.11475 -1.61133,-2.16191 0.50342,-0.50342 1.28333,1.00647 2.33333,2.05647 2.33333,2.33334 0,1.09738 -1.09492,0.39108 -2.83675,-1.82992 z m -157.33334,-1.33334 c -1.65849,-2.11474 -1.61133,-2.1619 0.50342,-0.50341 2.221,1.74183 2.9273,2.83675 1.82992,2.83675 -0.27687,0 -1.32687,-1.05 -2.33334,-2.33334 z m -105.16325,-6.17008 c 0,-0.27686 1.05,-1.32686 2.33333,-2.33333 2.11475,-1.65849 2.16191,-1.61133 0.50341,0.50341 -1.74182,2.221 -2.83674,2.92731 -2.83674,1.82992 z m 101.87332,-3.82992 -2.53999,-3 3,2.53999 c 1.65,1.39699 3,2.74699 3,3 0,1.067 -1.07305,0.27927 -3.46001,-2.53999 z m 62.12668,1.16326 c 0,-0.27687 1.05,-1.32687 2.33334,-2.33334 2.11474,-1.65849 2.1619,-1.61133 0.50341,0.50342 -1.74183,2.221 -2.83675,2.9273 -2.83675,1.82992 z M 362.4966,157.66667 c -1.6585,-2.11474 -1.61134,-2.1619 0.50341,-0.50341 1.28333,1.00647 2.33333,2.05647 2.33333,2.33333 0,1.09739 -1.09492,0.39108 -2.83674,-1.82992 z m 326.66667,0 c -1.65849,-2.11474 -1.61133,-2.1619 0.50342,-0.50341 1.28333,1.00647 2.33333,2.05647 2.33333,2.33333 0,1.09739 -1.09492,0.39108 -2.83675,-1.82992 z m -401.82993,-1.66666 c 1.32732,-1.46667 2.71331,-2.66667 3.07998,-2.66667 0.36666,0 -0.41932,1.2 -1.74664,2.66667 -1.32732,1.46666 -2.71331,2.66666 -3.07998,2.66666 -0.36666,0 0.41932,-1.2 1.74664,-2.66666 z m 478.00002,2.16325 c 0,-0.27687 1.05,-1.32687 2.33333,-2.33333 2.11475,-1.6585 2.16191,-1.61134 0.50341,0.50341 -1.74182,2.221 -2.83674,2.92731 -2.83674,1.82992 z m -305.58335,-7.07407 c 0.9625,-0.38516 2.11251,-0.3378 2.55556,0.1052 0.44306,0.44307 -0.34445,0.75819 -1.75,0.7003 -1.55326,-0.064 -1.8692,-0.37992 -0.80556,-0.80555 z m 241.94205,-21.34651 c 1.29729,-0.33805 3.09729,-0.31582 4,0.0494 0.90271,0.36523 -0.15871,0.64183 -2.35871,0.61465 -2.2,-0.0272 -2.93858,-0.32599 -1.64129,-0.66405 z m 46.05796,0.0132 c 0.9625,-0.38516 2.11251,-0.33779 2.55556,0.10527 0.44306,0.44306 -0.34445,0.75819 -1.75,0.70029 -1.55326,-0.064 -1.8692,-0.37992 -0.80556,-0.80555 z m -30.75,-1.30558 c 0.91667,-0.36989 2.41667,-0.36989 3.33333,0 0.91667,0.36988 0.16667,0.67251 -1.66666,0.67251 -1.83334,0 -2.58334,-0.30263 -1.66667,-0.67251 z m 17.41667,-0.0278 c 0.96249,-0.38516 2.11251,-0.33779 2.55556,0.10527 0.44305,0.44306 -0.34445,0.75819 -1.75,0.70029 -1.55327,-0.064 -1.8692,-0.37992 -0.80556,-0.80555 z m 28,-1.33333 c 0.96249,-0.38516 2.11251,-0.33779 2.55556,0.10527 0.44305,0.44305 -0.34445,0.75818 -1.75,0.70029 -1.55327,-0.064 -1.8692,-0.37992 -0.80556,-0.80556 z m -62.05796,-1.3465 c 1.29729,-0.33806 3.09729,-0.31583 4,0.0494 0.9027,0.36523 -0.15871,0.64182 -2.35871,0.61465 -2.2,-0.0272 -2.93859,-0.326 -1.64129,-0.66406 z m 47.39129,0.0132 c 0.9625,-0.38516 2.11251,-0.3378 2.55556,0.10526 0.44306,0.44306 -0.34445,0.75819 -1.75,0.7003 -1.55326,-0.064 -1.8692,-0.37992 -0.80556,-0.80556 z m -213.33334,-5.33334 c 0.9625,-0.38516 2.11251,-0.33779 2.55556,0.10527 0.44306,0.44306 -0.34445,0.75819 -1.75,0.70029 -1.55326,-0.064 -1.8692,-0.37992 -0.80556,-0.80555 z M 45.9282,118.55049 c -0.492715,-0.79723 -0.140103,-2.14723 0.783584,-3 1.299177,-1.19943 1.445519,-1.13937 0.646336,0.26525 -0.611863,1.0754 -0.283881,2.29028 0.804395,2.97959 1.208088,0.76518 1.293553,1.17083 0.249509,1.18426 -0.873388,0.0112 -1.991108,-0.63187 -2.483824,-1.4291 z m 87.15514,-0.79464 c 0.96249,-0.38516 2.11249,-0.33779 2.55556,0.10527 0.44305,0.44305 -0.34446,0.75819 -1.75,0.70029 -1.55326,-0.064 -1.86921,-0.37992 -0.80556,-0.80555 z m 729.33335,0 c 0.9625,-0.38516 2.11251,-0.33779 2.55556,0.10527 0.44306,0.44305 -0.34445,0.75819 -1.75,0.70029 -1.55326,-0.064 -1.8692,-0.37992 -0.80556,-0.80555 z M 65.083335,116.42252 c 0.9625,-0.38516 2.1125,-0.33779 2.555556,0.10527 0.443055,0.44305 -0.344445,0.75818 -1.75,0.70029 -1.553257,-0.064 -1.8692,-0.37992 -0.805556,-0.80556 z m 468.000015,0 c 0.96249,-0.38516 2.11251,-0.33779 2.55556,0.10527 0.44305,0.44305 -0.34445,0.75818 -1.75,0.70029 -1.55327,-0.064 -1.8692,-0.37992 -0.80556,-0.80556 z m 32.60871,-0.0132 c 1.29729,-0.33806 3.09729,-0.31583 4,0.0494 0.9027,0.36523 -0.15871,0.64182 -2.35871,0.61465 -2.2,-0.0272 -2.93859,-0.326 -1.64129,-0.66406 z m 314.68153,-0.0577 c 3.50546,-0.27557 8.90546,-0.27224 12,0.007 3.09454,0.27963 0.22644,0.50509 -6.37356,0.50103 -6.6,-0.004 -9.1319,-0.23285 -5.62644,-0.50842 z M 85.000003,115.03548 c 2.383333,-0.29577 6.283333,-0.29577 8.666666,0 2.383334,0.29577 0.433334,0.53776 -4.333333,0.53776 -4.766667,0 -6.716667,-0.24199 -4.333333,-0.53776 z m 57.416667,0.0537 c 0.96249,-0.38516 2.11249,-0.33779 2.55556,0.10527 0.44305,0.44306 -0.34445,0.75819 -1.75,0.70029 -1.55327,-0.064 -1.8692,-0.37992 -0.80556,-0.80555 z M 66.333335,112.4503 c 0.916667,-0.36989 2.416667,-0.36989 3.333334,0 0.916666,0.36988 0.166666,0.67251 -1.666667,0.67251 -1.833333,0 -2.583333,-0.30263 -1.666667,-0.67251 z m 45.333335,0 c 0.91667,-0.36989 2.41667,-0.36989 3.33333,0 0.91667,0.36988 0.16667,0.67251 -1.66666,0.67251 -1.83334,0 -2.58334,-0.30263 -1.66667,-0.67251 z m 454.00001,-0.0361 c 1.28334,-0.33537 3.38334,-0.33537 4.66667,0 1.28333,0.33537 0.23333,0.60976 -2.33333,0.60976 -2.56667,0 -3.61667,-0.27439 -2.33334,-0.60976 z m 308.02539,-0.005 c 1.29729,-0.33806 3.09729,-0.31583 4,0.0494 0.9027,0.36523 -0.15871,0.64182 -2.35871,0.61465 -2.2,-0.0272 -2.93859,-0.326 -1.64129,-0.66406 z m 23.30796,0.0409 c 0.91666,-0.36988 2.41666,-0.36988 3.33333,0 0.91667,0.36989 0.16667,0.67252 -1.66667,0.67252 -1.83333,0 -2.58333,-0.30263 -1.66666,-0.67252 z M 535.75002,95.089185 c 0.96249,-0.385162 2.1125,-0.337792 2.55556,0.105266 0.44305,0.443056 -0.34446,0.758188 -1.75,0.700294 -1.55327,-0.06397 -1.8692,-0.379922 -0.80556,-0.805556 z M 421.08335,88.422518 c 0.96249,-0.385162 2.1125,-0.337792 2.55556,0.105266 0.44305,0.443056 -0.34446,0.758188 -1.75,0.700294 -1.55327,-0.06397 -1.8692,-0.379922 -0.80556,-0.805556 z m 51.91666,-1.363492 c 1.65,-0.317804 4.35,-0.317804 6,0 1.65,0.317804 0.3,0.577825 -3,0.577825 -3.3,0 -4.65,-0.260021 -3,-0.577825 z m 41.41667,0.03016 c 0.9625,-0.385162 2.11251,-0.337792 2.55556,0.105266 0.44306,0.443056 -0.34445,0.758188 -1.75,0.700294 -1.55326,-0.06397 -1.8692,-0.379922 -0.80556,-0.805556 z m -93.41667,-2.638891 c 0.91667,-0.369883 2.41667,-0.369883 3.33334,0 0.91666,0.369884 0.16666,0.672515 -1.66667,0.672515 -1.83333,0 -2.58333,-0.302631 -1.66667,-0.672515 z m 20.08334,-1.361111 c 0.96249,-0.385161 2.1125,-0.337792 2.55556,0.105267 0.44305,0.443056 -0.34446,0.758188 -1.75,0.700293 -1.55327,-0.06397 -1.8692,-0.379921 -0.80556,-0.805556 z m 34.58333,-0.03016 c 1.65,-0.317804 4.35,-0.317804 6,0 1.65,0.317804 0.3,0.577826 -3,0.577826 -3.3,0 -4.65,-0.260022 -3,-0.577826 z m -21.33333,-1.275397 c 0.91666,-0.369883 2.41666,-0.369883 3.33333,0 0.91667,0.369884 0.16667,0.672515 -1.66667,0.672515 -1.83333,0 -2.58333,-0.302631 -1.66666,-0.672515 z M 41.692044,29.74268 c 1.297289,-0.338058 3.097289,-0.315826 4,0.0494 0.902709,0.365236 -0.158709,0.641829 -2.358709,0.614656 -2.2,-0.02717 -2.938582,-0.325998 -1.641291,-0.664056 z m 22.641291,0.0049 c 1.283334,-0.335369 3.383334,-0.335369 4.666667,0 1.283333,0.335371 0.233333,0.609764 -2.333333,0.609764 -2.566667,0 -3.616667,-0.274393 -2.333334,-0.609764 z m 36.750005,-1.32505 c 0.9625,-0.385162 2.1125,-0.337792 2.55555,0.105266 0.44306,0.443056 -0.34444,0.758188 -1.75,0.700294 -1.55326,-0.06397 -1.8692,-0.379922 -0.80555,-0.805556 z M 87.750003,27.089182 c 0.9625,-0.385161 2.1125,-0.337792 2.555556,0.105267 0.443054,0.443056 -0.344446,0.758188 -1.75,0.700293 -1.553258,-0.06397 -1.8692,-0.379921 -0.805556,-0.805556 z M 45.692044,25.74268 c 1.297289,-0.338058 3.097289,-0.315826 4,0.0494 0.902709,0.365236 -0.158709,0.641829 -2.358709,0.614656 -2.2,-0.02717 -2.938582,-0.325998 -1.641291,-0.664056 z m 8.641291,-0.01699 c 1.65,-0.317804 4.35,-0.317804 6,0 1.65,0.317804 0.3,0.577826 -3,0.577826 -3.3,0 -4.65,-0.260022 -3,-0.577826 z"
         id="path390" />
      <path
         style="fill:#90a6ad;stroke-width:1.33333"
         d="m 601.00002,612.45031 c 0.91666,-0.36988 2.41666,-0.36988 3.33333,0 0.91667,0.36988 0.16667,0.67252 -1.66667,0.67252 -1.83333,0 -2.58333,-0.30264 -1.66666,-0.67252 z m -13.30874,-3.34156 c 0.7748,-0.7748 2.19576,-1.14638 3.15768,-0.82574 0.9986,0.33286 0.3942,0.93725 -1.40873,1.40873 -2.2178,0.57996 -2.73837,0.40644 -1.74895,-0.58299 z M 397.94519,583.91131 c -0.48338,-0.78212 -0.59291,-1.708 -0.2434,-2.0575 0.34949,-0.34951 0.99074,0.29041 1.425,1.42204 0.90157,2.34948 0.1332,2.76274 -1.1816,0.63546 z M 662.33335,468.33359 c 39.78334,-0.19609 104.88334,-0.19609 144.66667,0 39.78334,0.19609 7.23334,0.35655 -72.33333,0.35655 -79.56667,0 -112.11667,-0.16046 -72.33334,-0.35655 z M 130.8772,396.00001 c 0,-1.83333 0.30263,-2.58333 0.67251,-1.66666 0.36988,0.91666 0.36988,2.41666 0,3.33333 -0.36988,0.91667 -0.67251,0.16667 -0.67251,-1.66667 z m 835.5395,-78.24415 c 0.96249,-0.38516 2.1125,-0.3378 2.55556,0.1052 0.44305,0.44306 -0.34446,0.75819 -1.75,0.7003 -1.55327,-0.064 -1.8692,-0.37992 -0.80556,-0.80555 z m -709.41669,-2.63889 c 0.91666,-0.36988 2.41666,-0.36988 3.33333,0 0.91667,0.36988 0.16667,0.67252 -1.66667,0.67252 -1.83333,0 -2.58333,-0.30264 -1.66666,-0.67252 z M 88.666669,313.33334 c 0.453226,-0.73333 1.088635,-1.33333 1.412023,-1.33333 0.323388,0 0.587977,0.6 0.587977,1.33333 0,0.73334 -0.63541,1.33334 -1.412022,1.33334 -0.776612,0 -1.041203,-0.6 -0.587978,-1.33334 z m 623.000021,0.4503 c 0.91666,-0.36988 2.41666,-0.36988 3.33333,0 0.91667,0.36988 0.16667,0.67252 -1.66667,0.67252 -1.83333,0 -2.58333,-0.30264 -1.66666,-0.67252 z m -61,-6.28704 c 0,-0.27687 1.05,-1.32687 2.33333,-2.33334 2.11475,-1.65849 2.16191,-1.61133 0.50341,0.50342 -1.74182,2.221 -2.83674,2.9273 -2.83674,1.82992 z m -167.89474,-4.27436 c 0.064,-1.55327 0.37992,-1.8692 0.80554,-0.80556 0.38516,0.96249 0.3378,2.11249 -0.1052,2.55556 -0.44305,0.44305 -0.75818,-0.34446 -0.70029,-1.75 z M 313.43861,257.8889 c 0.064,-1.55326 0.37992,-1.8692 0.80555,-0.80556 0.38516,0.9625 0.3378,2.1125 -0.1052,2.55556 -0.44307,0.44306 -0.75819,-0.34445 -0.7003,-1.75 z m 628.00002,-1.33333 c 0.064,-1.55327 0.37992,-1.8692 0.80554,-0.80556 0.38516,0.96249 0.3378,2.11249 -0.1052,2.55556 -0.44305,0.44305 -0.75818,-0.34445 -0.70029,-1.75 z m 127.99997,-1.33333 c 0.064,-1.55327 0.38,-1.8692 0.8056,-0.80556 0.3851,0.96249 0.3378,2.11249 -0.1052,2.55556 -0.4431,0.44305 -0.7582,-0.34446 -0.7003,-1.75 z m -350.56139,-9.8889 c 0,-1.83333 0.30264,-2.58333 0.67252,-1.66666 0.36988,0.91666 0.36988,2.41666 0,3.33333 -0.36988,0.91667 -0.67252,0.16667 -0.67252,-1.66667 z M 80.105265,241.8889 c 0.06397,-1.55327 0.379921,-1.8692 0.805556,-0.80556 0.385161,0.96249 0.337792,2.1125 -0.105267,2.55556 -0.443056,0.44306 -0.758188,-0.34445 -0.700293,-1.75 z m 169.333345,0 c 0.064,-1.55327 0.37992,-1.8692 0.80554,-0.80556 0.38516,0.96249 0.3378,2.1125 -0.1052,2.55556 -0.44306,0.44306 -0.75818,-0.34445 -0.70029,-1.75 z m 73.22807,0.25376 c 0,-0.28821 0.93116,-0.88133 2.06925,-1.31807 1.18656,-0.45532 1.72176,-0.2318 1.25464,0.52402 -0.78301,1.26695 -3.32389,1.87393 -3.32389,0.79405 z M 182.77194,213.8889 c 0.064,-1.55327 0.37992,-1.8692 0.80555,-0.80556 0.38516,0.96249 0.3378,2.11249 -0.1052,2.55556 -0.44307,0.44305 -0.75819,-0.34445 -0.7003,-1.75 z m 698.66669,0 c 0.064,-1.55327 0.37992,-1.8692 0.80554,-0.80556 0.38516,0.96249 0.3378,2.11249 -0.1052,2.55556 -0.44305,0.44305 -0.75818,-0.34445 -0.70029,-1.75 z m -767.77196,-5.55329 c 12.28333,-0.22004 32.38333,-0.22004 44.66667,0 12.28333,0.22004 2.23333,0.40006 -22.33334,0.40006 -24.56666,0 -34.61666,-0.18002 -22.33333,-0.40006 z m 89.33334,0.001 c 9.35,-0.2292 24.65,-0.2292 34,0 9.35,0.2292 1.7,0.41673 -17,0.41673 -18.7,0 -26.35,-0.18753 -17,-0.41673 z m 72,0 c 9.35,-0.2292 24.65,-0.2292 34,0 9.35,0.2292 1.7,0.41673 -17,0.41673 -18.7,0 -26.35,-0.18753 -17,-0.41673 z m 74.74639,-9.9e-4 c 10.12717,-0.2268 26.32717,-0.22621 36,0.001 9.67281,0.2275 1.38694,0.41306 -18.41306,0.41234 -19.8,-7e-4 -27.71413,-0.18685 -17.58694,-0.41364 z m 77.92028,-4e-5 c 11.18333,-0.22301 29.48333,-0.22301 40.66667,0 11.18333,0.22302 2.03333,0.40547 -20.33334,0.40547 -22.36666,0 -31.51666,-0.18245 -20.33333,-0.40547 z m 84,3.5e-4 c 10.45,-0.22528 27.55,-0.22528 38,0 10.45,0.22528 1.9,0.4096 -19,0.4096 -20.9,0 -29.45,-0.18432 -19,-0.4096 z m 80.66667,-1.9e-4 c 10.81667,-0.2241 28.51667,-0.2241 39.33334,0 10.81666,0.22412 1.96666,0.40748 -19.66667,0.40748 -21.63334,0 -30.48334,-0.18336 -19.66667,-0.40748 z m 80,3.9e-4 c 10.08334,-0.22651 26.58334,-0.22651 36.66667,0 10.08333,0.22652 1.83333,0.41184 -18.33333,0.41184 -20.16667,0 -28.41667,-0.18532 -18.33334,-0.41184 z m 78.00001,-2e-4 c 10.45,-0.22528 27.55,-0.22528 38,0 10.45,0.22528 1.9,0.4096 -19,0.4096 -20.9,0 -29.45,-0.18432 -19,-0.4096 z m 79.25462,0.001 c 9.30672,-0.22888 24.90673,-0.2295 34.66667,-0.001 9.75996,0.22812 2.14538,0.41539 -16.92129,0.41615 -19.06667,7.6e-4 -27.05208,-0.18588 -17.74538,-0.41476 z m 74.82694,-0.001 c 10.86153,-0.22437 28.26153,-0.22385 38.66667,0.001 10.40514,0.22501 1.51844,0.40859 -19.74823,0.40795 -21.26667,-6.3e-4 -29.77996,-0.18472 -18.91844,-0.4091 z m 86.67231,-8.6e-4 c 13.79797,-0.21688 35.99797,-0.21655 49.33337,7.4e-4 13.3353,0.2173 2.0461,0.39475 -25.0872,0.39434 -27.13337,-4.2e-4 -38.04413,-0.1782 -24.24617,-0.39508 z m -340.42054,-7.00199 c -1.20172,-0.77661 -1.36618,-1.30065 -0.41203,-1.31292 0.87339,-0.0107 1.9588,0.57959 2.41203,1.31292 1.02306,1.65537 0.56149,1.65537 -2,0 z m -94.12669,-9.66667 -2.53998,-3 3,2.53999 c 2.81925,2.38696 3.60698,3.46001 2.53998,3.46001 -0.25301,0 -1.60301,-1.35 -3,-3 z m 1.33334,-4 -2.53999,-3 3,2.53999 c 2.81925,2.38696 3.60699,3.46001 2.53999,3.46001 -0.25302,0 -1.60302,-1.35 -3,-3 z m 496.69246,-2 -3.2324,-3.66666 3.6666,3.23241 c 2.0167,1.77784 3.6667,3.42784 3.6667,3.66667 0,1.0457 -1.0797,0.19464 -4.1009,-3.23242 z m -912.14913,-2.57748 c 0.96249,-0.38516 2.11249,-0.3378 2.55556,0.1052 0.44305,0.44306 -0.34445,0.75819 -1.75,0.7003 -1.55327,-0.064 -1.8692,-0.37992 -0.80556,-0.80555 z m 287.58334,-7.08918 c 4.3541,-4.4 8.21652,-8 8.58319,-8 0.36667,0 -2.89576,3.6 -7.24985,8 -4.3541,4.4 -8.21652,8 -8.58319,8 -0.36667,0 2.89576,-3.6 7.24985,-8 z m 279.16326,-3.66667 c -1.65849,-2.11475 -1.61133,-2.16191 0.50342,-0.50341 2.221,1.74182 2.9273,2.83674 1.82992,2.83674 -0.27687,0 -1.32687,-1.05 -2.33334,-2.33333 z m -268.49659,-11 c 1.32732,-1.46667 2.71331,-2.66667 3.07997,-2.66667 0.36667,0 -0.41932,1.2 -1.74664,2.66667 -1.32732,1.46667 -2.7133,2.66667 -3.07997,2.66667 -0.36667,0 0.41932,-1.2 1.74664,-2.66667 z m -159.33334,-4.50341 c 0,-0.27687 1.05,-1.32687 2.33334,-2.33334 2.11474,-1.65849 2.1619,-1.61133 0.50341,0.50342 -1.74183,2.221 -2.83675,2.9273 -2.83675,1.82992 z m 409.23243,-3.16326 -3.23242,-3.66666 3.66667,3.23241 c 2.01667,1.77784 3.66667,3.42784 3.66667,3.66667 0,1.0457 -1.07974,0.19464 -4.10092,-3.23242 z m -232.87372,1.40935 c 1.2973,-0.33805 3.0973,-0.31583 4,0.0493 0.90271,0.36524 -0.1587,0.64183 -2.3587,0.61466 -2.2,-0.0272 -2.93859,-0.326 -1.6413,-0.66406 z m -160.35871,-7.57943 c 0,-0.27686 1.05,-1.32686 2.33334,-2.33333 2.11474,-1.6585 2.1619,-1.61134 0.50341,0.50341 -1.74183,2.221 -2.83675,2.92731 -2.83675,1.82992 z M 349.16326,139 c -1.65849,-2.11474 -1.61133,-2.1619 0.50342,-0.50341 1.28333,1.00647 2.33333,2.05647 2.33333,2.33333 0,1.09739 -1.09492,0.39108 -2.83675,-1.82992 z m 181.25342,-18.57748 c 0.9625,-0.38516 2.11251,-0.33779 2.55556,0.10527 0.44306,0.44305 -0.34445,0.75818 -1.75,0.70029 -1.55326,-0.064 -1.8692,-0.37992 -0.80556,-0.80556 z m 386.66668,-1.33333 c 0.96249,-0.38517 2.11251,-0.3378 2.55556,0.10526 0.44305,0.44306 -0.34445,0.75819 -1.75,0.7003 -1.55327,-0.064 -1.8692,-0.37993 -0.80556,-0.80556 z M 594.3489,117.72366 c 1.65854,-0.31893 4.05854,-0.30682 5.33333,0.0269 1.27479,0.33373 -0.0823,0.59466 -3.01555,0.57987 -2.93333,-0.0148 -3.97633,-0.28785 -2.31778,-0.60677 z m 9.40112,0.0322 c 0.96249,-0.38517 2.1125,-0.3378 2.55556,0.10526 0.44305,0.44306 -0.34446,0.75819 -1.75,0.7003 -1.55327,-0.064 -1.8692,-0.37993 -0.80556,-0.80556 z m -66.66667,-1.33334 c 0.96249,-0.38516 2.11251,-0.33779 2.55556,0.10527 0.44305,0.44306 -0.34445,0.75819 -1.75,0.70029 -1.55327,-0.064 -1.8692,-0.37992 -0.80556,-0.80555 z m 80.92611,-0.40724 c -0.46712,-0.75581 0.0681,-0.97934 1.25464,-0.52401 2.30989,0.88638 2.73252,1.84207 0.81461,1.84207 -0.69005,0 -1.62123,-0.59313 -2.06925,-1.31806 z m 280.40723,0.40724 c 0.9625,-0.38516 2.11251,-0.33779 2.55556,0.10527 0.44306,0.44306 -0.34445,0.75819 -1.75,0.70029 -1.55326,-0.064 -1.8692,-0.37992 -0.80556,-0.80555 z m -797.33335,-1.33333 c 0.9625,-0.38516 2.1125,-0.33779 2.55555,0.10527 0.44306,0.44305 -0.34444,0.75818 -1.75,0.70029 -1.55326,-0.064 -1.8692,-0.37992 -0.80555,-0.80556 z m 509.58334,0.3868 c 0,-0.28821 0.9,-0.86938 2,-1.29149 1.1,-0.42211 2,-0.1863 2,0.52402 0,0.71031 -0.9,1.29148 -2,1.29148 -1.1,0 -2,-0.2358 -2,-0.52401 z m 273.68501,-3.09943 c 2.02675,-0.30647 5.02675,-0.29828 6.66667,0.0182 1.63992,0.31649 -0.0183,0.56723 -3.685,0.55723 -3.66667,-0.01 -5.00841,-0.26896 -2.98167,-0.57543 z M 545.08335,92.422518 c 0.96249,-0.385162 2.11251,-0.337792 2.55556,0.105267 0.44305,0.443056 -0.34445,0.758188 -1.75,0.700293 -1.55327,-0.06397 -1.8692,-0.379921 -0.80556,-0.805556 z m -34.66667,-5.333334 c 0.9625,-0.385161 2.11251,-0.337792 2.55556,0.105267 0.44306,0.443056 -0.34445,0.758188 -1.75,0.700293 -1.55326,-0.06397 -1.8692,-0.379921 -0.80556,-0.805556 z m -57.33333,-1.333333 c 0.96249,-0.385161 2.1125,-0.337792 2.55556,0.105267 0.44305,0.443056 -0.34446,0.758188 -1.75,0.700293 -1.55327,-0.06397 -1.8692,-0.379921 -0.80556,-0.805556 z m 5.33333,0 c 0.96249,-0.385161 2.11251,-0.337792 2.55556,0.105267 0.44305,0.443056 -0.34445,0.758188 -1.75,0.700293 -1.55327,-0.06397 -1.8692,-0.379921 -0.80556,-0.805556 z m -32,-1.333333 c 0.96249,-0.385162 2.11251,-0.337792 2.55556,0.105266 0.44305,0.443056 -0.34445,0.758188 -1.75,0.700294 -1.55327,-0.06397 -1.8692,-0.379922 -0.80556,-0.805556 z m 42.58333,-1.305556 c 0.91667,-0.369883 2.41667,-0.369883 3.33334,0 0.91666,0.369884 0.16666,0.672514 -1.66667,0.672514 -1.83333,0 -2.58333,-0.30263 -1.66667,-0.672514 z M 95.750003,31.089182 c 0.9625,-0.385161 2.1125,-0.337792 2.555556,0.105267 0.443055,0.443056 -0.344445,0.758188 -1.75,0.700293 -1.553258,-0.06397 -1.8692,-0.379921 -0.805556,-0.805556 z M 73.015547,29.723653 c 1.658551,-0.318924 4.058551,-0.306816 5.333334,0.02691 1.274784,0.333724 -0.08221,0.594662 -3.015545,0.579864 -2.933334,-0.0148 -3.976338,-0.287847 -2.317789,-0.606771 z m 8.067789,-2.634471 c 0.9625,-0.385161 2.1125,-0.337792 2.555556,0.105267 0.443054,0.443056 -0.344446,0.758188 -1.75,0.700293 -1.553258,-0.06397 -1.8692,-0.379921 -0.805556,-0.805556 z"
         id="path388" />
      <path
         style="fill:#699597;stroke-width:1.33333"
         d="m 716.80403,494.88891 c -0.37769,-0.61112 0.16051,-1.11112 1.19599,-1.11112 1.03548,0 1.57368,0.5 1.19599,1.11112 -0.37768,0.61111 -0.91588,1.11111 -1.19599,1.11111 -0.28011,0 -0.81831,-0.5 -1.19599,-1.11111 z M 439.75001,477.75587 c 0.9625,-0.38516 2.11251,-0.3378 2.55556,0.1052 0.44306,0.44305 -0.34445,0.75819 -1.75,0.70029 -1.55326,-0.064 -1.8692,-0.37992 -0.80556,-0.80554 z m -106.87732,-7.42252 c 0.33992,-0.55 53.94721,-1 119.12732,-1 65.18011,0 118.78741,0.45 119.12733,1 0.33992,0.55 -53.26738,1 -119.12733,1 -65.85995,0 -119.46724,-0.45 -119.12732,-1 z m 577.46067,-5.99343 c 6.78333,-0.24198 17.88333,-0.24198 24.66667,0 6.78333,0.24199 1.23333,0.43999 -12.33334,0.43999 -13.56666,0 -19.11666,-0.198 -12.33333,-0.43999 z m -14.33333,-4.84332 c 0,-0.27686 1.05,-1.32686 2.33333,-2.33333 2.11475,-1.65849 2.16191,-1.61133 0.50341,0.50341 -1.74182,2.221 -2.83674,2.92731 -2.83674,1.82992 z m -809.333361,-96 c 0,-0.27687 1.05,-1.32687 2.333334,-2.33333 2.114741,-1.6585 2.161901,-1.61134 0.503406,0.50341 -1.741825,2.221 -2.83674,2.92731 -2.83674,1.82992 z m 618.496601,-4.49659 c -1.65849,-2.11474 -1.61133,-2.1619 0.50342,-0.50341 1.28333,1.00647 2.33333,2.05647 2.33333,2.33333 0,1.09739 -1.09492,0.39108 -2.83675,-1.82992 z M 320.61185,317.24464 c -0.48337,-0.78212 -0.59291,-1.708 -0.2434,-2.05751 0.34949,-0.34951 0.99075,0.29041 1.425,1.42204 0.90157,2.34948 0.1332,2.76275 -1.1816,0.63547 z m -64.86184,-4.82211 c 0.96249,-0.38516 2.11249,-0.3378 2.55556,0.1052 0.44305,0.44305 -0.34446,0.75819 -1.75,0.70029 -1.55327,-0.064 -1.8692,-0.37992 -0.80556,-0.80554 z m 68.46052,-7.08919 c 0,-1.83333 0.30264,-2.58333 0.67252,-1.66666 0.36988,0.91666 0.36988,2.41666 0,3.33333 -0.36988,0.91667 -0.67252,0.16667 -0.67252,-1.66667 z m 246.20615,-2.24414 c 0.9625,-0.38516 2.11251,-0.3378 2.55556,0.1052 0.44306,0.44305 -0.34445,0.75818 -1.75,0.70029 -1.55326,-0.064 -1.8692,-0.37992 -0.80556,-0.80555 z m -246.3114,-5.2003 c 0.064,-1.55326 0.37992,-1.8692 0.80554,-0.80556 0.38516,0.9625 0.3378,2.1125 -0.1052,2.55556 -0.44306,0.44306 -0.75818,-0.34445 -0.70029,-1.75 z m 243.89474,-39.14265 c 0,-1.06685 -0.86748,-1.36796 -2.33334,-0.80989 -1.87086,0.71224 -2.003,0.55553 -0.66666,-0.79068 1.28325,-1.29275 2.02962,-1.31604 3.24444,-0.1012 0.86778,0.86778 1.16778,1.98778 0.66666,2.48889 -0.5011,0.50108 -0.9111,0.14689 -0.9111,-0.78712 z m 518.77198,-2.19068 c 0.064,-1.55327 0.3799,-1.8692 0.8055,-0.80556 0.3852,0.96249 0.3378,2.11249 -0.1052,2.55556 -0.443,0.44305 -0.7582,-0.34445 -0.7003,-1.75 z m -929.3334,-4 c 0.064,-1.55327 0.37992,-1.8692 0.80555,-0.80556 0.38516,0.96249 0.3378,2.11249 -0.1052,2.55556 -0.44307,0.44305 -0.75819,-0.34445 -0.70029,-1.75 z m 389.33335,0 c 0.064,-1.55327 0.37992,-1.8692 0.80555,-0.80556 0.38516,0.96249 0.3378,2.11249 -0.1052,2.55556 -0.44306,0.44305 -0.75819,-0.34445 -0.7003,-1.75 z m 319.64474,-5.46637 c 0.9625,-0.38516 2.11251,-0.3378 2.55556,0.1052 0.44306,0.44305 -0.34445,0.75818 -1.75,0.70029 -1.55326,-0.064 -1.8692,-0.37992 -0.80556,-0.80555 z M 89.593268,215.33334 c 0.02717,-2.2 0.325997,-2.93859 0.664056,-1.64129 0.338057,1.29729 0.315825,3.09729 -0.0494,4 -0.365236,0.9027 -0.641829,-0.15871 -0.614656,-2.35871 z m 874.942392,-1.33333 c 0.12853,-2.6158 1.07214,-2.66714 49.46434,-2.69102 l 49.3334,-0.0243 -48.9094,0.37381 c -45.16874,0.34521 -48.95185,0.55103 -49.4644,2.691 -0.41564,1.73536 -0.52209,1.6476 -0.42394,-0.34947 z m 102.34154,0.66666 c 0,-1.83333 0.3027,-2.58333 0.6725,-1.66666 0.3699,0.91666 0.3699,2.41666 0,3.33333 -0.3698,0.91667 -0.6725,0.16667 -0.6725,-1.66667 z m -182.32113,-1.33333 c 0.12626,-1.72721 5.37229,-2.00425 38.46222,-2.03121 l 38.31606,-0.0312 -37.90663,0.38485 c -28.60433,0.2904 -38.04299,0.78887 -38.46223,2.03121 -0.30789,0.91242 -0.49042,0.75476 -0.40942,-0.35362 z m -666.55606,-1.33333 -34.66667,-0.73462 34.25464,-0.29936 c 21.72709,-0.18988 34.55601,0.18827 35.07869,1.03398 0.45323,0.73333 0.63864,1.19862 0.41203,1.03397 -0.22661,-0.16465 -16.01203,-0.62993 -35.07869,-1.03397 z m 149.33333,0 -37.33333,-0.73028 36.92131,-0.30152 c 23.5068,-0.19199 37.22071,0.1829 37.74536,1.0318 0.45323,0.73333 0.63864,1.19764 0.41203,1.0318 -0.22662,-0.16584 -17.21203,-0.63015 -37.74537,-1.0318 z m 364.48657,-0.35486 c 0.56274,-0.56184 17.78347,-0.86118 38.2683,-0.66522 l 37.24515,0.3563 -38.2683,0.66522 c -21.04756,0.36588 -37.80787,0.20554 -37.24515,-0.3563 z m -618.15324,-0.64288 c 12.28333,-0.22004 32.38333,-0.22004 44.66667,0 12.28333,0.22004 2.23333,0.40007 -22.33334,0.40007 -24.56666,0 -34.61666,-0.18003 -22.33333,-0.40007 z m 160.66667,10e-4 c 9.71667,-0.22781 25.61667,-0.22781 35.33334,0 9.71666,0.22782 1.76666,0.41422 -17.66667,0.41422 -19.43334,0 -27.38334,-0.1864 -17.66667,-0.41422 z m 154.08322,-10e-4 c 11.59576,-0.2222 30.19576,-0.22173 41.33333,10e-4 11.13756,0.22277 1.65012,0.40457 -21.08321,0.40401 -22.73333,-5.7e-4 -31.84589,-0.18284 -20.25012,-0.40504 z m 83.25012,9.3e-4 c 10.45,-0.22528 27.55,-0.22528 38,0 10.45,0.22528 1.9,0.4096 -19,0.4096 -20.9,0 -29.45,-0.18432 -19,-0.4096 z m 80.08242,-8e-4 c 11.22865,-0.22325 29.22865,-0.22276 40,0.001 10.77133,0.22385 1.58425,0.40652 -20.41575,0.40592 -22,-6e-4 -30.81292,-0.18375 -19.58425,-0.40702 z m 80.58425,0.001 c 10.08334,-0.2265 26.58334,-0.2265 36.66667,0 10.08333,0.22652 1.83333,0.41184 -18.33333,0.41184 -20.16667,0 -28.41667,-0.18532 -18.33334,-0.41184 z m 156.07973,-5e-4 c 10.12717,-0.2268 26.32717,-0.22622 36,10e-4 9.67281,0.22751 1.38695,0.41307 -18.41305,0.41235 -19.80001,-7.1e-4 -27.71414,-0.18686 -17.58695,-0.41364 z M 577.33335,198.16326 c 0,-0.27687 1.05,-1.32687 2.33333,-2.33333 2.11475,-1.6585 2.16191,-1.61134 0.50342,0.50341 -1.74183,2.221 -2.83675,2.92731 -2.83675,1.82992 z M 129.66667,185.74757 c 1.28333,-0.33536 3.38333,-0.33536 4.66667,0 1.28333,0.33537 0.23333,0.60977 -2.33334,0.60977 -2.56666,0 -3.61666,-0.2744 -2.33333,-0.60977 z m 178.16326,-1.41423 c -1.65849,-2.11475 -1.61133,-2.16191 0.50341,-0.50341 2.221,1.74182 2.92731,2.83674 1.82992,2.83674 -0.27686,0 -1.32686,-1.05 -2.33333,-2.33333 z m -78.82992,0.11693 c 0.91666,-0.36988 2.41666,-0.36988 3.33333,0 0.91667,0.36988 0.16667,0.67252 -1.66667,0.67252 -1.83333,0 -2.58333,-0.30264 -1.66666,-0.67252 z m 820.16329,-4.11693 c -1.6585,-2.11475 -1.6113,-2.16191 0.5034,-0.50341 1.2833,1.00646 2.3333,2.05646 2.3333,2.33333 0,1.09739 -1.0949,0.39108 -2.8367,-1.82992 z M 606.66668,162.16326 c 0,-0.27687 1.05,-1.32687 2.33334,-2.33333 2.11474,-1.6585 2.1619,-1.61134 0.50341,0.50341 -1.74183,2.221 -2.83675,2.92731 -2.83675,1.82992 z m -200.25,-4.4074 c 0.96249,-0.38516 2.11251,-0.3378 2.55556,0.1052 0.44305,0.44307 -0.34445,0.75819 -1.75,0.70029 -1.55327,-0.064 -1.8692,-0.37992 -0.80556,-0.80554 z m 59.94055,-2.72216 c 2.39646,-0.29675 5.99646,-0.29063 8,0.0136 2.00353,0.30424 0.0428,0.54703 -4.35722,0.53955 -4.4,-0.008 -6.03925,-0.2564 -3.64278,-0.55315 z m 228.05946,-25.27785 c 0.96249,-0.38516 2.1125,-0.33779 2.55556,0.10527 0.44305,0.44306 -0.34446,0.75819 -1.75,0.70029 -1.55327,-0.064 -1.8692,-0.37992 -0.80556,-0.80555 z m 13.33333,-4 c 0.96249,-0.38516 2.11251,-0.33779 2.55556,0.10527 0.44305,0.44306 -0.34445,0.75819 -1.75,0.70029 -1.55327,-0.064 -1.8692,-0.37992 -0.80556,-0.80555 z m 21.25,-1.30555 c 0.91667,-0.36989 2.41667,-0.36989 3.33333,0 0.91667,0.36988 0.16667,0.67251 -1.66666,0.67251 -1.83334,0 -2.58334,-0.30263 -1.66667,-0.67251 z m 120.08334,-5.36111 c 0.96249,-0.38517 2.11251,-0.3378 2.55556,0.10526 0.44305,0.44306 -0.34445,0.75819 -1.75,0.7003 -1.55327,-0.064 -1.8692,-0.37993 -0.80556,-0.80556 z M 58.416668,116.42252 c 0.9625,-0.38516 2.1125,-0.33779 2.555556,0.10527 0.443055,0.44305 -0.344445,0.75818 -1.75,0.70029 -1.553257,-0.064 -1.8692,-0.37992 -0.805556,-0.80556 z m 812.000022,0 c 0.9625,-0.38516 2.11251,-0.33779 2.55556,0.10527 0.44306,0.44305 -0.34445,0.75818 -1.75,0.70029 -1.55326,-0.064 -1.8692,-0.37992 -0.80556,-0.80556 z M 77.000002,115.11696 c 0.916667,-0.36988 2.416667,-0.36988 3.333334,0 0.916666,0.36989 0.166666,0.67252 -1.666667,0.67252 -1.833333,0 -2.583333,-0.30263 -1.666667,-0.67252 z m 28.083338,-0.0278 c 0.9625,-0.38516 2.1125,-0.33779 2.55555,0.10527 0.44306,0.44305 -0.34444,0.75818 -1.75,0.70029 -1.55325,-0.064 -1.8692,-0.37992 -0.80555,-0.80556 z m -49.333338,-1.33333 c 0.9625,-0.38517 2.1125,-0.3378 2.555556,0.10526 0.443054,0.44306 -0.344446,0.75819 -1.75,0.7003 -1.553258,-0.064 -1.8692,-0.37993 -0.805556,-0.80556 z m 48.608708,-1.34651 c 1.29729,-0.33805 3.09729,-0.31582 4,0.0494 0.90271,0.36524 -0.15871,0.64183 -2.35871,0.61466 -2.2,-0.0272 -2.93858,-0.326 -1.64129,-0.66406 z M 433.08335,87.089184 c 0.96249,-0.385161 2.1125,-0.337792 2.55556,0.105267 0.44305,0.443056 -0.34446,0.758188 -1.75,0.700293 -1.55327,-0.06397 -1.8692,-0.379921 -0.80556,-0.805556 z m 16,-1.333333 c 0.96249,-0.385161 2.1125,-0.337792 2.55556,0.105267 0.44305,0.443056 -0.34446,0.758188 -1.75,0.700293 -1.55327,-0.06397 -1.8692,-0.379921 -0.80556,-0.805556 z"
         id="path386" />
      <path
         style="fill:#4b7288;stroke-width:1.33333"
         d="m 221.43861,396.55557 c 0.064,-1.55326 0.37992,-1.8692 0.80554,-0.80556 0.38516,0.9625 0.3378,2.11251 -0.1052,2.55556 -0.44306,0.44306 -0.75818,-0.34445 -0.70029,-1.75 z m 252,-2.66666 c 0.064,-1.55327 0.37992,-1.8692 0.80555,-0.80556 0.38516,0.96249 0.3378,2.1125 -0.1052,2.55556 -0.44305,0.44305 -0.75819,-0.34446 -0.70029,-1.75 z m 5.22807,-10.39231 c 0,-0.27687 1.05,-1.32687 2.33333,-2.33333 2.11475,-1.6585 2.16191,-1.61134 0.50342,0.50341 -1.74183,2.221 -2.83675,2.92731 -2.83675,1.82992 z M 90.085727,373.72419 c -0.72358,-1.90027 -0.570428,-2.05342 0.746393,-0.7464 0.911224,0.90445 1.320895,1.98032 0.910379,2.39084 -0.410516,0.41052 -1.156064,-0.32948 -1.656772,-1.64444 z m 101.744203,-2.72418 c -1.6585,-2.11474 -1.61134,-2.1619 0.50341,-0.50341 1.28333,1.00647 2.33333,2.05647 2.33333,2.33333 0,1.09739 -1.09492,0.39108 -2.83674,-1.82992 z m 73.94785,0.39199 c 0,-1.06775 0.50979,-1.62628 1.13287,-1.2412 0.62306,0.38508 0.78766,1.25868 0.36574,1.94135 -1.07816,1.7445 -1.49861,1.54808 -1.49861,-0.70015 z m 443.55557,0.084 c 0,-0.28821 0.93116,-0.88133 2.06926,-1.31807 1.18656,-0.45532 1.72176,-0.2318 1.25464,0.52402 -0.78302,1.26694 -3.3239,1.87393 -3.3239,0.79405 z m -450.08313,-2.27715 c -0.49893,-0.80729 0.49339,-2.75729 2.20516,-4.33333 l 3.11231,-2.86551 -2.41446,2.91599 c -1.32794,1.60379 -2.02026,3.55379 -1.53848,4.33333 0.48178,0.77954 0.57596,1.41735 0.2093,1.41735 -0.36667,0 -1.07488,-0.66052 -1.57383,-1.46783 z M 91.41906,362.27584 c 0.500708,-1.31496 1.246256,-2.05496 1.656772,-1.64444 0.410516,0.41052 8.45e-4,1.48639 -0.910379,2.39084 -1.316821,1.30701 -1.469973,1.15387 -0.746393,-0.7464 z m 313.66429,-45.85331 c 0.96249,-0.38516 2.1125,-0.3378 2.55556,0.1052 0.44305,0.44305 -0.34446,0.75819 -1.75,0.70029 -1.55327,-0.064 -1.8692,-0.37992 -0.80556,-0.80554 z m 165.33333,-10.66667 c 0.9625,-0.38516 2.11251,-0.3378 2.55556,0.1052 0.44306,0.44306 -0.34445,0.75819 -1.75,0.7003 -1.55326,-0.064 -1.8692,-0.37992 -0.80556,-0.80555 z m -9.33333,-2.66666 c 0.96249,-0.38516 2.11251,-0.3378 2.55556,0.1052 0.44305,0.44305 -0.34445,0.75818 -1.75,0.70029 -1.55327,-0.064 -1.8692,-0.37992 -0.80556,-0.80555 z m -6.05796,-8.01318 c 1.29729,-0.33805 3.09729,-0.31582 4,0.0495 0.90271,0.36524 -0.15871,0.64183 -2.35871,0.61465 -2.2,-0.0272 -2.93858,-0.326 -1.64129,-0.66405 z M 408.61185,267.9113 c -0.48337,-0.78212 -0.5929,-1.708 -0.2434,-2.0575 0.3495,-0.34951 0.99075,0.29041 1.425,1.42204 0.90158,2.34948 0.1332,2.76274 -1.1816,0.63546 z M 419.33335,268 c 0.45322,-0.73333 1.08864,-1.33333 1.41202,-1.33333 0.32339,0 0.58798,0.6 0.58798,1.33333 0,0.73333 -0.63542,1.33333 -1.41203,1.33333 -0.77661,0 -1.0412,-0.6 -0.58797,-1.33333 z m 6.66666,-1.33333 c 0.45323,-0.73334 1.08864,-1.33334 1.41203,-1.33334 0.32339,0 0.58797,0.6 0.58797,1.33334 0,0.73333 -0.63541,1.33333 -1.41202,1.33333 -0.77662,0 -1.0412,-0.6 -0.58798,-1.33333 z m 460.41668,-2.24415 c 0.9625,-0.38516 2.11251,-0.3378 2.55556,0.1052 0.44306,0.44305 -0.34445,0.75819 -1.75,0.70029 -1.55326,-0.064 -1.8692,-0.37992 -0.80556,-0.80554 z m -168.6389,-2.36387 c 0,-1.06774 0.50979,-1.62628 1.13287,-1.2412 0.62307,0.38508 0.78767,1.25868 0.36575,1.94135 -1.07816,1.74451 -1.49862,1.54808 -1.49862,-0.70015 z M 1058,262.66668 c -0.4532,-0.73334 -0.1886,-1.33334 0.588,-1.33334 0.7766,0 1.412,0.6 1.412,1.33334 0,0.73333 -0.2646,1.33333 -0.5879,1.33333 -0.3234,0 -0.9588,-0.6 -1.4121,-1.33333 z m -814.24999,-0.91082 c 0.96249,-0.38516 2.11249,-0.3378 2.55556,0.1052 0.44305,0.44306 -0.34446,0.75819 -1.75,0.7003 -1.55327,-0.064 -1.8692,-0.37992 -0.80556,-0.80555 z m 468.00001,0 c 0.96249,-0.38516 2.11251,-0.3378 2.55556,0.1052 0.44305,0.44306 -0.34445,0.75819 -1.75,0.7003 -1.55327,-0.064 -1.8692,-0.37992 -0.80556,-0.80555 z M 563.66668,260.4503 c 0.91667,-0.36988 2.41667,-0.36988 3.33334,0 0.91666,0.36988 0.16666,0.67252 -1.66667,0.67252 -1.83333,0 -2.58333,-0.30264 -1.66667,-0.67252 z m -323.56141,-2.5614 c 0.064,-1.55326 0.37992,-1.8692 0.80555,-0.80556 0.38516,0.9625 0.3378,2.1125 -0.1052,2.55556 -0.44307,0.44306 -0.75819,-0.34445 -0.70029,-1.75 z m 30.66667,-1.33333 c 0.064,-1.55327 0.37992,-1.8692 0.80555,-0.80556 0.38516,0.96249 0.3378,2.11249 -0.1052,2.55556 -0.44307,0.44305 -0.75819,-0.34445 -0.7003,-1.75 z m 457.33335,0 c 0.064,-1.55327 0.37992,-1.8692 0.80554,-0.80556 0.38516,0.96249 0.3378,2.11249 -0.1052,2.55556 -0.44305,0.44305 -0.75818,-0.34445 -0.70029,-1.75 z m 88.43301,-0.29265 c 0.20875,-2.82443 2.72879,-2.49608 3.09882,0.40376 l 0.34026,2.66666 -1.14229,-2.66666 c -0.90027,-2.10168 -1.27819,-2.24294 -1.78373,-0.66667 -0.35279,1.1 -0.58367,1.21831 -0.51306,0.26291 z M 308.10528,253.8889 c 0.064,-1.55326 0.37992,-1.8692 0.80554,-0.80556 0.38516,0.9625 0.3378,2.1125 -0.1052,2.55556 -0.44306,0.44306 -0.75818,-0.34445 -0.70029,-1.75 z m 240.91934,-4.78016 c 0.7748,-0.7748 2.19576,-1.14638 3.15768,-0.82574 0.9986,0.33286 0.3942,0.93725 -1.40874,1.40873 -2.2178,0.57996 -2.73837,0.40644 -1.74894,-0.58299 z m -460.919355,-1.8865 c 0.06397,-1.55327 0.379922,-1.8692 0.805556,-0.80556 0.385162,0.96249 0.337792,2.11249 -0.105266,2.55556 -0.443056,0.44305 -0.758188,-0.34446 -0.700294,-1.75 z m -24.105263,-2.39231 c 0,-0.27687 1.05,-1.32687 2.333333,-2.33333 2.114742,-1.6585 2.161902,-1.61134 0.503407,0.50341 -1.741825,2.221 -2.83674,2.92731 -2.83674,1.82992 z m 27.750001,-1.74073 c 0.9625,-0.38516 2.1125,-0.3378 2.555556,0.1052 0.443054,0.44305 -0.344446,0.75818 -1.75,0.70029 -1.553258,-0.064 -1.8692,-0.37992 -0.805556,-0.80555 z m 160.404667,-2.83455 c -0.0987,-1.96475 -0.71164,-2.73447 -1.69401,-2.12732 -0.99228,0.61326 -1.17572,0.36302 -0.51617,-0.70415 1.45269,-2.35051 3.79977,0.33536 3.00189,3.4352 -0.51228,1.99028 -0.66732,1.87206 -0.79171,-0.60373 z m 319.59535,-2.49879 c 0.96249,-0.38516 2.1125,-0.3378 2.55556,0.1052 0.44305,0.44305 -0.34446,0.75819 -1.75,0.70029 -1.55327,-0.064 -1.8692,-0.37992 -0.80556,-0.80554 z M 87.207372,218.15254 c -0.389915,-1.01609 -0.508183,-4.46609 -0.262816,-7.66667 0.431765,-5.63193 0.466652,-5.57242 1.084117,1.84928 0.647536,7.78316 0.455366,9.14434 -0.821301,5.81739 z m 977.003228,-3.48587 c 0,-1.83333 0.3026,-2.58333 0.6725,-1.66666 0.3699,0.91666 0.3699,2.41666 0,3.33333 -0.3699,0.91667 -0.6725,0.16667 -0.6725,-1.66667 z m -737.43866,-2.1111 c 0.064,-1.55327 0.37992,-1.8692 0.80555,-0.80556 0.38516,0.96249 0.3378,2.11249 -0.1052,2.55556 -0.44307,0.44305 -0.75819,-0.34446 -0.70029,-1.75 z m 2.66667,0 c 0.064,-1.55327 0.37992,-1.8692 0.80555,-0.80556 0.38516,0.96249 0.3378,2.11249 -0.1052,2.55556 -0.44307,0.44305 -0.75819,-0.34446 -0.7003,-1.75 z m 734.77199,-7.22223 c 0,-1.83333 0.3026,-2.58333 0.6725,-1.66667 0.3699,0.91667 0.3699,2.41667 0,3.33334 -0.3699,0.91666 -0.6725,0.16666 -0.6725,-1.66667 z M 726.77195,201.8889 c 0.064,-1.55327 0.37992,-1.8692 0.80555,-0.80556 0.38516,0.96249 0.3378,2.11249 -0.1052,2.55556 -0.44305,0.44305 -0.75819,-0.34445 -0.70029,-1.75 z M 89.945177,201.24463 c -0.483377,-0.78212 -0.59291,-1.708 -0.243406,-2.0575 0.349504,-0.34951 0.990754,0.29041 1.425001,1.42204 0.901579,2.34948 0.133133,2.76274 -1.181595,0.63546 z m 625.953923,-18.24462 -3.23241,-3.66667 3.66666,3.23241 c 2.01667,1.77784 3.66667,3.42784 3.66667,3.66667 0,1.04571 -1.07973,0.19464 -4.10092,-3.23241 z m -594.20705,0.076 c 1.29729,-0.33806 3.09729,-0.31583 4,0.0495 0.90271,0.36524 -0.15871,0.64183 -2.35871,0.61466 -2.2,-0.0272 -2.93858,-0.326 -1.64129,-0.66406 z m 9.97462,-0.017 c 1.65,-0.31781 4.35,-0.31781 6,0 1.65,0.3178 0.3,0.57783 -3,0.57783 -3.3,0 -4.65,-0.26003 -3,-0.57783 z m 85.41667,0.0301 c 0.96249,-0.38516 2.11249,-0.3378 2.55556,0.1052 0.44305,0.44305 -0.34445,0.75818 -1.75,0.70029 -1.55327,-0.064 -1.8692,-0.37992 -0.80556,-0.80555 z m 5.33333,0 c 0.9625,-0.38516 2.1125,-0.3378 2.55556,0.1052 0.44306,0.44305 -0.34445,0.75818 -1.75,0.70029 -1.55326,-0.064 -1.8692,-0.37992 -0.80556,-0.80555 z m 10.66667,-1.33334 c 0.96249,-0.38516 2.11249,-0.3378 2.55556,0.1052 0.44305,0.44306 -0.34445,0.75819 -1.75,0.7003 -1.55327,-0.064 -1.8692,-0.37992 -0.80556,-0.80555 z m 510.91668,-2.42249 c 1.72234,-1.83333 3.43151,-3.33333 3.79818,-3.33333 0.36666,0 -0.74251,1.5 -2.46484,3.33333 -1.72234,1.83333 -3.43151,3.33333 -3.79818,3.33333 -0.36666,0 0.74251,-1.5 2.46484,-3.33333 z m 5.33334,-1.33333 c 2.4877,-2.56667 4.8231,-4.66667 5.18977,-4.66667 0.36667,0 -1.36873,2.1 -3.85644,4.66667 -2.48771,2.56666 -4.82311,4.66666 -5.18977,4.66666 -0.36667,0 1.36873,-2.1 3.85644,-4.66666 z m -694.916692,2.42252 c 0.9625,-0.38516 2.1125,-0.3378 2.555556,0.1052 0.443055,0.44305 -0.344445,0.75818 -1.75,0.70029 -1.553257,-0.064 -1.8692,-0.37992 -0.805556,-0.80555 z m 164.000002,0 c 0.9625,-0.38516 2.1125,-0.3378 2.55556,0.1052 0.44306,0.44305 -0.34445,0.75818 -1.75,0.70029 -1.55326,-0.064 -1.8692,-0.37992 -0.80556,-0.80555 z m 830.12333,-4.75586 -2.54,-3 3,2.53999 c 2.8193,2.38696 3.607,3.46001 2.54,3.46001 -0.253,0 -1.603,-1.35 -3,-3 z m -344.71006,-4.66666 c -1.65849,-2.11475 -1.61133,-2.16191 0.50341,-0.50342 1.28334,1.00647 2.33334,2.05647 2.33334,2.33334 0,1.09738 -1.09492,0.39108 -2.83675,-1.82992 z m -8,-8 c -1.65849,-2.11475 -1.61133,-2.16191 0.50341,-0.50342 2.221,1.74183 2.92731,2.83675 1.82992,2.83675 -0.27686,0 -1.32686,-1.05 -2.33333,-2.33333 z m 74.17008,-8.33334 c 1.32732,-1.46666 2.71331,-2.66666 3.07998,-2.66666 0.36666,0 -0.41932,1.2 -1.74664,2.66666 -1.32732,1.46667 -2.71331,2.66667 -3.07998,2.66667 -0.36666,0 0.41932,-1.2 1.74664,-2.66667 z M 303.33334,140 c 1.32732,-1.46666 2.71331,-2.66666 3.07998,-2.66666 0.36666,0 -0.41932,1.2 -1.74664,2.66666 -1.32732,1.46667 -2.71331,2.66667 -3.07998,2.66667 -0.36666,0 0.41932,-1.2 1.74664,-2.66667 z m 619.00002,-23.5497 c 0.91667,-0.36989 2.41667,-0.36989 3.33333,0 0.91667,0.36988 0.16667,0.67251 -1.66666,0.67251 -1.83334,0 -2.58334,-0.30263 -1.66667,-0.67251 z M 550.41668,93.755851 c 0.9625,-0.385161 2.11251,-0.337792 2.55556,0.105267 0.44306,0.443056 -0.34445,0.758188 -1.75,0.700293 -1.55326,-0.06397 -1.8692,-0.379921 -0.80556,-0.805556 z m -122.75,-6.638889 c 0.91667,-0.369883 2.41667,-0.369883 3.33333,0 0.91667,0.369884 0.16667,0.672514 -1.66666,0.672514 -1.83334,0 -2.58334,-0.30263 -1.66667,-0.672514 z m -11.91667,-1.361111 c 0.9625,-0.385161 2.11251,-0.337792 2.55556,0.105267 0.44306,0.443056 -0.34445,0.758188 -1.75,0.700293 -1.55326,-0.06397 -1.8692,-0.379921 -0.80556,-0.805556 z m 49.33334,0 c 0.96249,-0.385161 2.1125,-0.337792 2.55556,0.105267 0.44305,0.443056 -0.34446,0.758188 -1.75,0.700293 -1.55327,-0.06397 -1.8692,-0.379921 -0.80556,-0.805556 z m -32.08334,-1.305556 c 0.91667,-0.369883 2.41667,-0.369883 3.33334,0 0.91666,0.369884 0.16666,0.672515 -1.66667,0.672515 -1.83333,0 -2.58333,-0.302631 -1.66667,-0.672515 z m 29.41667,-1.361111 c 0.96249,-0.385161 2.11251,-0.337792 2.55556,0.105267 0.44305,0.443056 -0.34445,0.758188 -1.75,0.700293 -1.55327,-0.06397 -1.8692,-0.379921 -0.80556,-0.805556 z"
         id="path384" />
      <path
         style="fill:#298d64;stroke-width:1.33333"
         d="m 719.05302,501.33335 c -0.38355,-1.46667 -1.49196,-2.66667 -2.46315,-2.66667 -0.9712,0 -2.16154,-0.64032 -2.64522,-1.42293 -1.06119,-1.71703 1.91204,-18.33111 3.45066,-19.28203 2.25546,-1.39394 2.55008,2.03508 0.76619,8.91699 -1.01527,3.91672 -1.57548,7.58109 -1.24492,8.14305 1.01323,1.72248 3.08344,-0.35914 3.08344,-3.10044 0,-1.42338 0.6,-2.58797 1.33333,-2.58797 0.73334,0 1.33334,1.5 1.33334,3.33333 0,2.44444 0.7111,3.33334 2.66666,3.33334 1.46667,0 2.66667,0.55957 2.66667,1.24348 0,0.68392 -1.2,1.62434 -2.66667,2.08985 -1.46666,0.46551 -2.66666,1.70593 -2.66666,2.75652 0,2.88112 -2.8166,2.29147 -3.61367,-0.75652 z m -280.05301,-0.99401 c -5.24568,-0.91763 -3.23154,-2.66315 3.22247,-2.7927 8.30539,-0.1667 9.50893,-1.747 4.52465,-5.941 -4.41546,-3.71536 -5.26357,-6.27229 -2.08045,-6.27229 3.33239,0 2.23955,-2.31745 -1.54019,-3.26611 -2.27862,-0.5719 -3.91578,-0.28081 -4.59417,0.81684 -1.38943,2.24814 -3.08539,0.48042 -2.0722,-2.15989 1.02525,-2.67177 7.41759,-2.66148 11.24321,0.0181 3.26067,2.28386 3.896,5.3693 1.29668,6.29706 -1.1577,0.41321 -0.75053,1.5931 1.33334,3.8637 3.40444,3.70952 3.73172,5.52911 1.33333,7.41276 -2.10185,1.65078 -8.73759,2.71084 -12.66667,2.02354 z m 488.25459,-6.82156 -2.34869,-5.32343 -4.76246,3.23616 c -5.48922,3.73003 -6.81009,3.98723 -6.81009,1.32603 0,-1.05059 1.17365,-2.28266 2.60811,-2.73794 1.43445,-0.45528 4.16825,-2.68192 6.0751,-4.94808 1.93392,-2.29833 3.94271,-3.5934 4.54279,-2.92873 1.12928,1.25081 4.16441,15.55231 3.45476,16.27881 -0.22596,0.23134 -1.46775,-1.97494 -2.75952,-4.90282 z M 331.00001,473.67284 c -2.38333,-1.18614 -4.33333,-2.56804 -4.33333,-3.07088 0,-0.97582 10.03968,-7.93528 11.4474,-7.93528 0.46084,0 0.49254,0.9 0.0704,2 -0.67859,1.76838 12.72989,2 115.77867,2 76.25916,0 116.83097,0.4609 117.37017,1.33334 0.54702,0.88509 -39.29325,1.33333 -118.50929,1.33333 -71.94522,0 -119.63701,0.49136 -120.09805,1.23733 -0.4206,0.68055 0.44399,1.62098 1.92131,2.08986 1.47732,0.46888 2.68603,1.41208 2.68603,2.096 0,1.67312 -1.21008,1.46606 -6.33334,-1.0837 z m 238.37574,1.32718 c 0.0233,-0.55 0.92333,-2.16468 2,-3.58818 2.638,-3.48773 2.50083,-4.06961 -1.37573,-5.83589 -3.48759,-1.58904 -4.53351,-4.24737 -1.66667,-4.23597 0.91667,0.004 3.42288,1.41185 5.56937,3.12936 l 3.9027,3.12273 -2.9935,4.20397 c -2.78122,3.90588 -5.53474,5.52875 -5.43617,3.20398 z m 15.67629,-3.34834 -3.61462,-2.985 4.53476,-5.30209 c 4.47382,-5.23087 8.12764,-5.69975 4.96606,-0.63727 -1.61122,2.57999 -0.16542,2.6055 144.71716,2.55264 131.17497,-0.0479 145.96045,-0.26172 142.6384,-2.0633 -6.07351,-3.29374 -2.69405,-4.70979 3.75851,-1.5749 6.4234,3.12074 7.18469,4.26495 3.72176,5.5938 -1.22428,0.4698 -69.10598,0.82408 -150.84822,0.7873 -131.20077,-0.0591 -148.4299,0.16486 -146.98131,1.9103 2.93166,3.53244 0.82192,4.78591 -2.8925,1.71852 z m 311.28132,-3.80506 c -2.38333,-1.52632 -4.33333,-3.245 -4.33333,-3.81928 0,-1.55062 9.38252,-8.42258 10.27757,-7.52752 0.423,0.423 0.0107,1.68358 -0.91749,2.8013 -1.49959,1.80688 0.77098,2.03223 20.47666,2.03223 13.88662,0 22.16326,-0.49792 22.16326,-1.33333 0,-2.45286 3.50145,-1.36922 6.7504,2.08912 l 3.21522,3.42246 -3.31614,2.5479 c -5.30694,4.07746 -7.31788,3.02905 -3.1095,-1.62116 2.13047,-2.35415 1.32494,-2.43832 -23.33333,-2.43832 -22.97727,0 -29.47923,0.86973 -23.53999,3.14884 2.03503,0.7809 2.82334,3.53632 1,3.49536 -0.55,-0.012 -2.95,-1.27127 -5.33333,-2.7976 z M 326.1826,208.65878 c -1.10435,-1.10435 -2.34276,-3.05435 -2.75204,-4.33333 -0.94843,-2.9638 -27.81764,-28.20567 -37.82943,-35.53828 -21.30114,-15.60088 -32.9756,-21.42535 -66.26779,-33.06146 C 183.80713,123.30877 168.14508,120.30238 116,115.89046 c -18.79553,-1.59026 -52.016757,-0.75522 -62.510257,1.57125 -5.984788,1.32686 -8.276323,0.79154 -6.067398,-1.41738 1.29861,-1.29861 6.947515,-1.96398 29.244324,-3.44463 23.297477,-1.54709 85.641391,4.11335 109.705071,9.96054 11.87945,2.88657 39.86675,12.33351 57.82499,19.51847 12.27729,4.91206 28.35957,13.75698 33.18109,18.24891 1.38088,1.28648 2.86287,2.33905 3.29332,2.33905 2.5139,0 21.19279,14.19871 25.34499,19.26595 2.71327,3.31116 7.91077,8.15948 11.55004,10.77403 3.84964,2.76569 7.19957,6.42533 8.01023,8.75081 1.2752,3.65801 3.98337,4.92525 3.93768,1.84255 -0.0107,-0.715 1.07421,-2.5 2.4107,-3.96667 1.33648,-1.46667 3.3584,-4.50613 4.49315,-6.75437 2.47536,-4.90432 8.27123,-9.01284 24.18408,-17.14339 17.64867,-9.01744 16.65187,-5.26139 -1.16631,4.39473 -15.86301,8.59658 -18.38753,10.87183 -25.93936,23.37806 -2.47701,4.10206 -4.68416,7.4583 -4.90476,7.4583 -0.2206,0 -1.30465,-0.90354 -2.40898,-2.00789 z m 241.81742,-2.71589 c 0,-8.53276 -21.78831,-25.16286 -56,-42.74247 -5.96215,-3.06364 -28.33985,-7.35953 -42.47883,-8.15473 -9.67592,-0.5442 -13.13963,-1.1532 -11.56636,-2.03364 6.88284,-3.85184 47.87998,2.92518 59.99379,9.91724 3.69493,2.13272 9.41806,5.12282 12.71806,6.64468 11.73551,5.41206 35.73586,24.14942 39.61942,30.93136 0.89069,1.55541 1.64069,2.03664 1.66666,1.0694 0.026,-0.96723 4.69726,-6.99083 10.38059,-13.38578 5.68333,-6.39494 11.83333,-13.40357 13.66667,-15.57472 9.38346,-11.11253 28.78247,-24.52294 44,-30.41695 4.76667,-1.8462 12.26667,-4.88161 16.66667,-6.74536 4.42529,-1.87445 10.38313,-3.34073 13.33333,-3.28145 l 5.33333,0.10718 -6.66666,1.95991 c -9.66184,2.84047 -34.82358,13.70879 -43.18872,18.65486 -10.96309,6.48216 -23.50821,17.36387 -32.78851,28.44092 -4.60788,5.5 -10.50712,12.28073 -13.10943,15.06831 -2.60231,2.78757 -5.12007,6.83757 -5.59501,9 -1.13684,5.17601 -5.985,5.61444 -5.985,0.54124 z m 393.59626,0.0885 c -1.61126,-2.0484 -2.92958,-4.44289 -2.92958,-5.32111 0,-2.10702 -10.09659,-10.94034 -16.01394,-14.01029 -7.10812,-3.68773 -17.80156,-4.48311 -29.53623,-2.19691 -17.0146,3.31487 -25.38785,9.1468 -27.22985,18.9655 -1.02745,5.47682 -3.39716,5.84513 -5.56381,0.86473 -2.6287,-6.04247 -11.35606,-17.19496 -19.29412,-24.65552 -22.67739,-21.31327 -42.7163,-34.91127 -58.02213,-39.3727 -40.07445,-11.68109 -66.66816,-14.05693 -113.0066,-10.09584 -7.20371,0.61579 -8.99357,0.43445 -7.84432,-0.79473 2.47556,-2.64773 48.70348,-5.30265 61.84432,-3.55179 2.56667,0.34198 8.56667,1.00087 13.33334,1.46419 4.76666,0.46332 15.86666,2.67781 24.66666,4.92107 8.8,2.24326 17.2,4.24278 18.66667,4.44337 10.32296,1.41184 28.57269,11.67802 43.0082,24.19375 5.32119,4.61351 11.32119,9.255 13.33334,10.31441 3.73436,1.96616 14.53714,13.73431 20.31813,22.13379 4.21756,6.12791 5.71757,7.02228 7.16631,4.27285 0.65869,-1.25006 2.7673,-3.97108 4.68582,-6.0467 10.46744,-11.3246 41.47987,-14.98758 56.15487,-6.63264 7.70476,4.38657 16,12.2922 16,15.24852 0,1.26545 0.94822,3.24904 2.10715,4.40797 1.15892,1.15893 1.87724,2.79684 1.59625,3.6398 -0.28109,0.84327 -1.82861,-0.14256 -3.44048,-2.19172 z M 377.82836,167.72227 c -0.41912,-0.67816 -0.55196,-1.42688 -0.2952,-1.66382 1.55352,-1.4336 28.55892,-7.60051 43.80019,-10.00214 30.82885,-4.85781 28.85581,-4.69406 26.80641,-2.22469 -0.98977,1.19261 -3.37613,2.17073 -5.303,2.17361 -6.62468,0.009 -42.18261,6.51155 -53.20822,9.72898 -6.29624,1.83732 -11.3655,2.69138 -11.80018,1.98806 z"
         id="path382" />
      <path
         style="fill:#215a5f;stroke-width:1.33333"
         d="m 129.40345,404.33335 c -0.76372,-2.75 -1.39192,-5.84299 -1.39601,-6.87332 -0.006,-1.53399 -0.43009,-1.49812 -2.34077,0.19802 -3.5335,3.13676 -12.54935,7.90372 -13.37911,7.07396 -0.4026,-0.4026 -0.482,-0.8939 -0.17645,-1.09178 C 121.78445,397.37565 128,392.75863 128,391.83764 c 0,-0.64403 0.6,-1.17096 1.33334,-1.17096 0.73333,0 1.33333,2.66095 1.33333,5.9132 0,3.25227 0.58515,7.45227 1.30033,9.33333 0.78277,2.05883 0.80771,3.42014 0.0627,3.42014 -0.68071,0 -1.86252,-2.25 -2.62623,-5 z m 90.98673,-1.8961 c -0.60504,-3.05952 -1.72059,-5.7696 -2.47897,-6.0224 -0.75839,-0.25278 -3.89866,1.6972 -6.97838,4.33334 -3.5969,3.07881 -5.59949,4.0986 -5.59949,2.85142 0,-2.51352 13.99147,-12.17428 15.91237,-10.98709 0.80546,0.4978 1.16038,1.39712 0.78871,1.99849 -0.37167,0.60136 -0.15892,3.85991 0.47277,7.2412 0.6317,3.3813 0.66131,6.1478 0.0659,6.1478 -0.59549,0 -1.57776,-2.50324 -2.18281,-5.56276 z m 651.27651,3.78704 c -0.55,-1.3433 -1,-3.8933 -1,-5.66666 0,-2.81204 -0.61265,-3.22428 -4.79178,-3.22428 h -4.79179 l 0.95747,-7 c 0.5266,-3.85 1.55442,-8.5 2.28404,-10.33334 2.02741,-5.09428 2.85294,-0.77165 1.14672,6.00439 -2.03884,8.09697 -1.91732,8.66228 1.86201,8.66228 2.66667,0 3.33333,-0.66667 3.33333,-3.33333 0,-1.83334 0.6,-3.33334 1.33334,-3.33334 0.73333,0 1.33333,1.17019 1.33333,2.60042 0,1.43022 1.05,3.21198 2.33333,3.95945 2.1465,1.25023 2.15235,1.36229 0.0731,1.39959 -1.74339,0.0313 -2.35321,1.48886 -2.66667,6.37388 -0.28064,4.37366 -0.71581,5.57761 -1.40638,3.89094 z m -394.31897,-7.27785 c -5.71677,-4.62917 -2.18143,-19.35041 5.08504,-21.17419 3.35344,-0.84165 8.27111,2.69087 6.30535,4.52935 -0.60675,0.56747 -1.37103,0.28175 -1.69842,-0.63492 -1.67261,-4.68333 -8.07493,-0.22059 -10.26821,7.15748 -0.7344,2.47048 -0.16101,2.93265 4.57885,3.69059 6.23764,0.99744 8.38047,4.25545 4.61148,7.01141 -3.28308,2.40064 -5.08309,2.27951 -8.61409,-0.57972 z m 7.23261,-1.47339 c 0.79566,-1.28738 -2.19172,-2.80637 -5.51929,-2.80637 -1.67479,0 -1.74763,0.36941 -0.39436,2 1.85073,2.23 4.7864,2.63031 5.91365,0.80637 z M 86.333336,372.90197 c -2.016667,-1.65117 -3.666667,-3.43805 -3.666667,-3.97084 0,-1.33222 8.527124,-8.84844 9.235212,-8.14034 0.31371,0.3137 -1.148132,2.36412 -3.248537,4.55646 l -3.818917,3.9861 h 40.249453 c 22.21655,0 40.24946,-0.52451 40.24946,-1.17071 0,-0.64388 -1.35,-2.07829 -3,-3.18759 -1.65,-1.10928 -2.53,-2.50246 -1.95556,-3.09596 0.57445,-0.59349 3.25873,1.1352 5.96508,3.84156 4.77717,4.77716 4.84811,4.98904 2.43293,7.26667 -1.90565,1.79712 -2.32695,1.87808 -1.80063,0.34603 0.60238,-1.75342 -4.13477,-1.95414 -38.42069,-1.62803 -33.770778,0.3212 -39.005075,0.63963 -38.355143,2.33333 0.990656,2.5816 0.498665,2.43695 -3.865991,-1.13668 z m 102.694204,-1.52313 -3.63915,-3.20356 3.42339,-5.75429 c 3.08069,-5.17831 3.70517,-4.18052 1.19684,1.91236 -0.89663,2.17797 0.87536,2.33333 26.61217,2.33333 h 27.57276 l -2.7821,-3.53688 c -4.185,-5.32036 -1.94551,-5.65221 2.56201,-0.37965 4.71247,5.5123 4.71264,5.51326 1.35988,7.6071 -1.58069,0.98716 -2.66667,1.11778 -2.66667,0.32072 0,-0.85834 -9.47764,-1.34462 -26.20665,-1.34462 -26.12219,0 -26.19887,0.008 -23.79335,2.66666 3.35468,3.70688 0.7777,3.26702 -3.63913,-0.62117 z m 73.01177,-1.18521 c -2.36344,-1.72819 -2.30462,-2.0237 1.35858,-6.8264 2.10593,-2.76102 4.05113,-4.3535 4.32268,-3.53886 0.27154,0.81464 -0.4545,2.42938 -1.61342,3.58831 -1.15893,1.15893 -2.10714,2.36428 -2.10714,2.67857 0,0.31428 100.35,0.55247 223,0.5293 l 223.00001,-0.0421 -3.76959,-3.31577 c -2.07326,-1.82368 -3.57326,-3.84497 -3.33333,-4.49179 0.23993,-0.6468 3.11179,1.13872 6.38187,3.96786 3.27009,2.82912 5.60977,5.47969 5.1993,5.89017 -0.41048,0.41047 -101.67456,0.73091 -225.0313,0.71208 -150.44944,-0.0229 -224.0114,0.40844 -223.45395,1.31041 1.18771,1.92175 -1.05177,1.6602 -3.95371,-0.46174 z m 465.62738,-0.28958 c -2.01667,-1.09406 -3.66667,-2.24969 -3.66667,-2.56805 0,-1.66783 4.64984,-10.00265 5.58028,-10.00265 1.44028,0 1.36992,0.97886 -0.29385,4.08765 -1.36102,2.54308 0.83104,2.57901 157.33334,2.57901 104.48837,0 158.71361,0.4537 158.71361,1.32792 0,0.87235 -54.54825,1.44412 -159.00004,1.66667 -150.7777,0.32123 -158.79315,0.45665 -155.00001,2.61869 4.90357,2.79498 1.45359,3.06854 -3.66666,0.29076 z M 1048,369.71112 c 0,-0.64777 0.6946,-1.87235 1.5435,-2.72127 2.013,-2.01297 -0.1857,-4.77057 -5.5877,-7.00814 -2.1757,-0.9012 -3.9558,-2.21576 -3.9558,-2.92123 0,-0.70548 0.45,-1.06704 1,-0.80347 10.384,4.97628 11.1267,5.63974 10.7305,9.58436 -0.3475,3.45868 -3.7305,6.96803 -3.7305,3.86975 z m -167.13357,-44.0546 c -0.34338,-0.55558 -1.05396,-3.30042 -1.5791,-6.09962 l -0.95478,-5.08946 -4.22974,4.09962 c -5.39961,5.2335 -8.59441,5.30814 -9.61113,0.22452 l -0.77503,-3.87509 -7.95814,4.66415 c -4.37699,2.56528 -8.36323,4.23869 -8.85832,3.7187 -0.4951,-0.51998 0.19637,-1.62505 1.53658,-2.4557 11.31364,-7.01215 15.11919,-10.04971 16.68588,-13.3185 2.55943,-5.34008 5.09347,-2.64244 3.04303,3.23948 -3.41029,9.78275 0.22923,10.83474 6.63324,1.9173 3.27489,-4.5602 4.70795,-5.64448 6.02044,-4.55522 0.94737,0.78626 1.62589,3.0294 1.50784,4.98476 -0.118,1.95538 0.23721,5.80522 0.78951,8.55522 0.61793,3.07686 0.49834,5 -0.31091,5 -0.72328,0 -1.596,-0.45458 -1.93937,-1.01016 z m -552.86642,-4.98984 c 0,-2.66667 -0.66667,-3.33334 -3.33333,-3.33334 -3.27778,0 -3.33334,-0.17777 -3.33334,-10.66666 0,-6.22223 0.55556,-10.66667 1.33334,-10.66667 1.5347,0 1.77004,1.86501 1.50678,11.94164 -0.15017,5.74844 0.15334,6.93157 1.44644,5.63847 0.90007,-0.90007 1.6538,-2.81607 1.67496,-4.25779 0.0617,-4.20276 2.51892,-3.69835 3.41886,0.70181 1.03164,5.04419 0.0562,13.97587 -1.52626,13.97587 -0.65309,0 -1.18745,-1.5 -1.18745,-3.33333 z m 438.70407,2.42318 c 0.0205,-0.59942 3.73378,-3.48985 8.25161,-6.42318 5.84272,-3.79356 8.34508,-6.28747 8.66744,-8.63815 0.60872,-4.43888 2.61437,-6.32437 4.60739,-4.33136 1.1832,1.1832 1.1919,2.38015 0.0357,4.91753 -1.78359,3.91455 -0.93152,6.93546 2.4696,8.75568 3.39252,1.81563 3.39745,1.81092 3.39745,-3.24577 0,-8.85764 6.31387,-11.6532 11.10922,-4.91877 5.37157,7.54369 2.0244,12.01045 -8.93642,11.92554 -5.80898,-0.0449 -7.41765,-0.60964 -9.5843,-3.36409 l -2.60367,-3.31001 -5.72575,3.92204 c -6.1636,4.22196 -11.74881,6.47286 -11.68836,4.71054 z M 801.73101,310.531 c -2.18351,-2.18351 -4.39765,-0.24814 -4.39765,3.844 v 3.55093 l 2.94814,-2.94815 c 2.18223,-2.18222 2.55882,-3.33748 1.44951,-4.44678 z m 149.16704,11.13568 c -0.65769,-1.28334 -1.60714,-4.05068 -2.10988,-6.14967 -0.82929,-3.46236 -1.12466,-3.63268 -3.18444,-1.83639 -4.95796,4.32376 -13.6035,8.99007 -13.59204,7.33611 0.007,-0.92585 3.55472,-3.96597 7.88514,-6.75579 4.3304,-2.78982 8.20632,-5.93982 8.61316,-7 1.53365,-3.99665 3.26237,-1.68189 3.78818,5.0724 0.29972,3.85 1.01944,8.05 1.59939,9.33334 0.64475,1.42674 0.49919,2.33333 -0.37464,2.33333 -0.78599,0 -1.96719,-1.05 -2.62487,-2.33333 z m 111.10195,-3 c -0.4956,-2.93334 -1.2983,-5.31462 -1.7838,-5.29172 -0.4856,0.0229 -3.2828,1.51981 -6.2162,3.3265 -2.9333,1.80668 -6.0833,3.28796 -7,3.29172 -2.8077,0.012 -1.85,-2.42445 1.3334,-3.39141 4.9922,-1.51643 11.6666,-7.23904 11.6666,-10.00295 0,-1.42934 0.8401,-2.59881 1.8668,-2.59881 1.3026,0 1.8085,1.51117 1.6739,5 -0.1061,2.75 0.2811,7.25 0.8603,10 0.6382,3.02953 0.5501,5 -0.2234,5 -0.7021,0 -1.682,-2.4 -2.1776,-5.33333 z m 13.4,4.12941 c 0.6967,-0.66215 2.3705,-1.41215 3.7196,-1.66667 2.3239,-0.4384 2.3084,-0.62897 -0.2948,-3.62236 -2.1254,-2.444 -2.4405,-3.73366 -1.3913,-5.69421 1.6772,-3.13379 0.5645,-5.14617 -2.8455,-5.14617 -1.4234,0 -2.588,-0.6 -2.588,-1.33334 0,-2.06973 6.1436,-1.57016 7.9857,0.64935 0.9802,1.18111 1.2878,3.40764 0.7608,5.50724 -0.6628,2.64087 -0.1238,4.33428 2.1495,6.7542 2.5683,2.73377 2.7324,3.42047 1.0691,4.47236 -2.566,1.62269 -10.2639,1.69424 -8.5651,0.0796 z M 960.00003,319.54 c 0,-0.98635 1.2,-2.87934 2.66667,-4.20666 2.99546,-2.71085 3.5266,-6.80398 1,-7.70634 -0.91667,-0.32739 -1.24255,-1.05151 -0.72418,-1.60916 0.51838,-0.55767 1.86838,-0.65864 3,-0.22439 2.72651,1.04625 2.63631,7.35703 -0.14914,10.43491 -2.1046,2.32556 -1.9468,2.43832 3.41202,2.43832 3.40626,0 5.2942,0.52501 4.79463,1.33333 -1.30268,2.10779 -14,1.69057 -14,-0.46001 z m -555.33335,-3.64572 c -4.13235,-0.94227 -3.96841,-1.06686 2.51987,-1.91507 7.28586,-0.95248 8.13972,-1.70705 5.38104,-4.75536 -1.84188,-2.03527 -3.79366,-2.62443 -7.74818,-2.33891 -5.74964,0.41514 -6.94062,-0.89752 -5.61314,-6.18661 0.83032,-3.30825 2.0759,-3.95631 10.46041,-5.44228 3.15055,-0.55837 5,-0.37131 5,0.50572 0,1.37889 -1.23377,1.89308 -8.33333,3.47305 -2.05942,0.45831 -3.66667,1.71604 -3.66667,2.86928 0,1.12931 0.53837,1.72055 1.19639,1.31388 2.48274,-1.53442 9.72464,1.06406 11.80216,4.23475 3.80225,5.80297 -2.14594,10.26013 -10.99855,8.24155 z m 160.14266,-0.66999 c -0.44514,-1.15997 -0.80932,-3.49 -0.80932,-5.17783 0,-2.01476 -1.03039,-3.39193 -3,-4.00965 l -3,-0.94088 3.33333,-0.93596 c 1.96472,-0.55165 3.49989,-2.08136 3.73901,-3.72565 0.37478,-2.57724 -0.0821,-2.73751 -6,-2.1043 -3.52313,0.37699 -7.17017,1.29246 -8.10457,2.03438 -2.13897,1.69838 -3.54744,0.4027 -2.50767,-2.30688 0.50459,-1.31495 2.60914,-2.10507 5.83139,-2.18928 2.77301,-0.0725 7.59504,-0.25519 10.71563,-0.406 5.9721,-0.28863 6.00048,-0.23163 3.37178,6.77242 -0.33941,0.90439 1.0077,1.80736 3.18298,2.13356 l 3.77145,0.56558 -3.66667,0.19977 c -3.4272,0.18672 -3.66666,0.59164 -3.66666,6.19977 0,5.95082 -1.6351,7.94476 -3.19068,3.89095 z m 145.85735,0.77572 c 0,-0.73333 2.25,-1.34252 5,-1.35375 9.2102,-0.0376 11.0847,-4.543 3.41882,-8.21716 -7.21512,-3.4581 -2.9867,-11.3013 4.30228,-7.98022 3.09295,1.40924 3.48134,2.2056 2.78172,5.70368 -0.44724,2.23616 -0.14236,5.31913 0.6775,6.85105 1.21296,2.26643 1.03914,3.11544 -0.93302,4.55751 -2.8124,2.05648 -15.2473,2.41441 -15.2473,0.43889 z M 68.708014,314.73357 c -0.430485,-0.69653 0.584104,-1.97217 2.254644,-2.83475 1.670539,-0.86258 6.51879,-4.56124 10.77389,-8.21925 4.255101,-3.658 8.077159,-6.31031 8.493463,-5.894 1.43138,1.43139 -0.973308,7.80367 -2.695459,7.14281 -0.927919,-0.35606 -4.862342,1.98938 -8.74316,5.21211 -7.312919,6.07284 -8.761134,6.73252 -10.083378,4.59308 z m 191.283336,-1.64168 5.99135,-1.37723 -5.02768,-4.221 c -3.81419,-3.2022 -4.65436,-4.5943 -3.48097,-5.76769 0.85069,-0.85069 1.18588,-2.48704 0.74485,-3.63633 -0.89521,-2.33288 -5.60149,-2.83396 -6.899,-0.73455 -0.46061,0.74529 -1.42516,0.99188 -2.14344,0.54796 -2.2416,-1.38539 1.55392,-4.56971 5.44683,-4.56971 4.53328,0 8.42466,3.9113 6.66301,6.69712 -1.89487,2.99651 -1.61541,3.62438 2.76481,6.21183 2.7306,1.61301 3.9258,3.26739 3.66667,5.07539 -0.32113,2.24064 -1.48221,2.72096 -7.05111,2.91688 l -6.66666,0.23456 z m 393.16796,-0.96469 c -2.9465,-2.38594 -3.00189,-2.68826 -0.91614,-5 1.94256,-2.15306 1.98276,-2.78395 0.32174,-5.0487 -4.04298,-5.51249 -1.1414,-12.06702 4.94958,-11.18084 4.26106,0.61995 6.2268,8.37163 3.02118,11.91379 -2.12513,2.34825 -2.13034,2.68979 -0.0756,4.96021 2.77291,3.06403 2.80471,5.04688 0.0976,6.0857 -3.17949,1.22009 -3.98857,1.03088 -7.39832,-1.73016 z m 4.98966,-3.55319 c -0.71163,-1.85444 -1.18534,-1.92701 -2.96066,-0.45363 -1.91114,1.58611 -1.87772,1.83978 0.34911,2.64947 3.08104,1.12029 3.68817,0.60981 2.61155,-2.19584 z m 0.73508,-9.78964 c -0.68322,-0.4314 -1.46162,-1.81856 -1.72979,-3.08259 -0.34661,-1.6338 -1.04385,-1.9505 -2.41176,-1.09548 -1.58205,0.98888 -1.63541,1.83656 -0.30011,4.76724 1.3643,2.9943 1.94882,3.295 3.65398,1.87984 1.11642,-0.92656 1.47089,-2.03761 0.78768,-2.46901 z m -483.7178,12.94527 c -0.37988,-0.61466 0.8523,-2.95131 2.7382,-5.19256 1.88589,-2.24126 3.42889,-4.89356 3.42889,-5.89402 0,-3.02144 -2.68273,-3.70848 -5.28499,-1.35348 -3.49213,3.16035 -4.82085,0.1496 -1.4303,-3.24094 3.22526,-3.22527 5.77838,-3.45078 8.05204,-0.71119 2.3758,2.86268 2.05352,8.31968 -0.66903,11.32807 -2.27459,2.51337 -2.17844,2.57405 3.88541,2.45234 5.66159,-0.1136 8.76148,0.755 7.33576,2.05562 -1.21021,1.10401 -17.40902,1.60296 -18.05598,0.55616 z m 308.33998,-7.06296 c 0.46144,-3.66667 1.78,-7.74507 2.93014,-9.06311 2.37224,-2.71856 8.36787,-2.58745 9.28523,0.20303 0.42176,1.2829 -0.18407,1.55966 -2.09,0.95473 -1.65159,-0.52419 -3.50725,-0.0285 -4.82443,1.28865 -3.07841,3.07843 -2.67009,4.17744 1.89098,5.08966 8.46534,1.69306 5.95512,9.1499 -2.87691,8.54608 l -5.15397,-0.35238 z m 8.49378,3.33333 c 0,-0.73333 -0.93541,-1.33333 -2.07869,-1.33333 -1.14328,0 -1.70787,0.6 -1.25464,1.33333 0.45323,0.73333 1.38864,1.33333 2.07869,1.33333 0.69006,0 1.25464,-0.6 1.25464,-1.33333 z M 390.33334,268.89096 c -1.65069,-4.03163 -1.13682,-13.78422 0.81151,-15.40119 1.38316,-1.14792 2.61628,-0.87039 5.2149,1.17368 1.9071,1.50013 4.3422,2.31684 5.5388,1.85767 1.17448,-0.4507 3.05437,-0.0568 4.17754,0.87536 1.69782,1.40906 2.3755,1.21882 4.01951,-1.12832 2.73775,-3.90868 5.20589,-2.48191 7.89721,4.56522 3.12144,8.17336 1.58248,8.93859 -1.94392,0.96659 -2.20737,-4.99013 -3.11898,-5.98083 -4.08937,-4.44415 -0.68681,1.08764 -0.89191,3.92752 -0.45575,6.31086 1.01594,5.55144 -1.12197,5.59849 -3.59646,0.0792 -2.81796,-6.28543 -5.65288,-6.63254 -4.51226,-0.55248 1.2042,6.4189 -0.75477,5.98418 -4.15053,-0.92108 -1.51551,-3.0818 -3.73444,-5.7918 -4.93094,-6.02223 -1.77538,-0.34191 -2.24945,1.00648 -2.57785,7.33217 -0.26168,5.04066 -0.75208,6.89707 -1.40239,5.30875 z m 569.70061,-0.85703 c -3.32086,-3.32085 -4.83183,-9.13235 -3.09578,-11.90696 1.78169,-2.84753 7.55405,-3.41372 9.60529,-0.94212 1.37848,1.66096 0.86773,2.38688 -3.1181,4.43173 -4.57116,2.34515 -4.68133,2.56715 -2.68702,5.41442 2.25764,3.22324 6.94916,3.84986 11.68268,1.5604 2.7397,-1.32512 2.72574,-1.24608 -0.23536,1.33333 -3.97292,3.46077 -8.75715,3.50376 -12.15171,0.1092 z m 2.63275,-10.70059 c 1.72358,-1.11386 1.68838,-1.29532 -0.25464,-1.31292 -1.24006,-0.0107 -2.62547,0.57959 -3.0787,1.31292 -1.0429,1.68747 0.72218,1.68747 3.33334,0 z m -399.90107,8.09895 c -2.60044,-2.60044 -2.49417,-6.91615 0.25689,-10.43228 1.99859,-2.5544 6.04774,-1.98296 7.68978,1.08523 1.7833,3.33213 -0.3335,6.58144 -4.28756,6.58144 -1.5708,0 -2.21956,0.58658 -1.65647,1.4977 0.58828,0.95186 3.41115,1.23914 7.74536,0.78826 6.60248,-0.68684 6.69231,-0.65152 2.81972,1.10882 -5.62069,2.55499 -9.58187,2.35668 -12.56772,-0.62917 z m 5.90105,-6.65451 c 0,-3.09892 -3.03784,-3.1546 -4.68021,-0.0857 -1.37475,2.56872 -1.21716,2.81008 1.57639,2.41435 1.7071,-0.24182 3.10382,-1.28967 3.10382,-2.32856 z m 375.23617,5.63331 c -0.75048,-1.97392 -1.18562,-6.02392 -0.967,-9 0.34518,-4.69875 0.84996,-5.46371 3.83447,-5.81081 2.04901,-0.23831 4.74121,0.73437 6.66667,2.40861 2.94808,2.56347 2.97574,2.68552 0.31736,1.39973 -1.60179,-0.77473 -4.23079,-1.40861 -5.84223,-1.40861 -2.63412,0 -2.85188,0.50472 -2.15715,5 0.42502,2.75 1.17399,6.35 1.6644,8 1.2898,4.33952 -1.84216,3.815 -3.51652,-0.58892 z m -518.35612,0.75559 c -0.11733,-1.19167 -0.55333,-4.19167 -0.96881,-6.66667 -0.6184,-3.68376 -0.48255,-4.07156 0.749,-2.13793 0.82744,1.29914 1.2634,4.29914 0.96881,6.66666 -0.29458,2.36754 -0.63164,3.3296 -0.749,2.13794 z m 124.43785,-4.35487 c -2.67452,-7.00313 -2.2327,-10.63129 1.36408,-11.20149 2.13694,-0.33878 2.27164,-0.16231 0.69428,0.90953 -1.70842,1.16087 -1.66522,2.14415 0.33992,7.73833 2.6253,7.3244 2.76206,8.4085 1.06077,8.4085 -0.67268,0 -2.22925,-2.6347 -3.45905,-5.85487 z m 313.96723,0.34248 c -2.461,-9.13947 0.55692,-15.00155 6.38155,-12.39568 2.01164,0.89999 1.89521,1.11948 -0.84448,1.59203 -3.04256,0.52478 -3.14273,0.88368 -2.35377,8.43208 0.9582,9.16762 -0.96708,10.60197 -3.1833,2.37157 z m -622.9381,2.51239 c -6.17964,-4.76244 -0.9534,-18.2779 6.35822,-16.44279 2.88748,0.72471 3.17561,0.33072 3.57209,-4.88446 l 0.43125,-5.67276 1.40731,7.33334 c 0.77401,4.03333 1.20117,7.74773 0.94924,8.25421 -0.25193,0.5065 -2.18233,-0.0687 -4.28977,-1.2782 -3.09927,-1.77873 -4.21547,-1.8806 -5.83939,-0.53286 -2.87796,2.38849 -4.02151,8.11226 -2.08655,10.44376 1.56727,1.88842 2.61216,1.86618 8.4839,-0.18058 2.32364,-0.80997 2.26176,-0.57216 -0.48104,1.84874 -3.62807,3.20224 -5.47864,3.44409 -8.50526,1.1116 z m 83.83278,-1.09678 c -5.71719,-4.49713 -3.63712,-15.10438 2.50012,-12.7493 3.69308,1.41717 3.98124,5.08613 0.61363,7.81306 -2.60584,2.11008 -2.81738,2.7628 -1.22235,3.77191 2.53515,1.60389 4.86153,1.56932 8.01644,-0.11907 1.79581,-0.96116 2.57901,-0.95113 2.57901,0.0329 0,1.29157 -5.3627,4.0139 -7.90698,4.0139 -0.5867,0 -2.64764,-1.24354 -4.57987,-2.76344 z m 1.92019,-8.26989 c -0.16492,-1.59427 -1.99372,-1.28552 -2.56667,0.43333 -0.29333,0.88 0.18667,1.36 1.06667,1.06667 0.88,-0.29333 1.555,-0.96833 1.5,-1.5 z m 381.56667,9.65845 c -7.10314,-2.85512 -0.26517,-15.50485 7.74579,-14.32909 3.78935,0.55615 3.92156,0.39309 3.94129,-4.86028 0.0107,-2.98967 0.64475,-6.33575 1.4078,-7.43575 1.00974,-1.45557 1.24908,0.12587 0.87931,5.8095 -0.27944,4.29521 -0.1036,10.47462 0.39073,13.73201 0.70066,4.61675 0.51139,5.77384 -0.85846,5.24817 -0.96652,-0.37088 -3.42586,0.19602 -5.46522,1.25978 -4.22322,2.20292 -4.02768,2.18892 -8.04124,0.57566 z m 8.33504,-2.62577 c 2.79958,-1.06439 3.42339,-2.07483 3.0868,-5 -0.61589,-5.35243 -6.41396,-5.79171 -10.35274,-0.78435 -2.74302,3.48718 -2.77496,3.79211 -0.56652,5.40696 2.81701,2.05986 3.34088,2.0851 7.83246,0.37739 z m 68.63475,1.27753 c -0.80154,-1.4977 -1.27265,-4.94272 -1.0469,-7.65557 0.42998,-5.16719 2.93045,-6.80584 7.48833,-4.9074 3.50113,1.45827 10.07977,1.58891 11.88895,0.23608 1.10886,-0.82915 2.92885,0.0739 5.66666,2.81172 5.23568,5.23567 5.27983,8.59824 0.0471,3.58495 -4.30628,-4.12568 -6.44612,-3.8913 -4.12193,0.45149 0.79274,1.48127 1.44136,3.68265 1.44136,4.89197 0,3.68447 -2.92904,1.47691 -4.5108,-3.39969 -1.8218,-5.61672 -7.03754,-7.65143 -5.67256,-2.21295 0.46126,1.8378 1.23682,4.37907 1.72346,5.64726 0.60952,1.58836 0.32608,2.11954 -0.91097,1.7072 -0.98769,-0.32923 -2.36387,-2.36111 -3.05816,-4.51527 -0.69431,-2.15417 -1.85527,-4.66667 -2.57993,-5.58333 -2.0299,-2.56776 -4.99103,-1.97447 -4.99103,1 0,1.46666 0.6,2.66666 1.33333,2.66666 0.73334,0 1.33334,1.8 1.33334,4 0,4.61668 -1.91764,5.22426 -4.03022,1.27688 z m 32.59724,-2.00572 c -1.24678,-6.646 0.13399,-7.15106 1.78354,-0.65237 0.75124,2.95967 0.85688,5.38121 0.23474,5.38121 -0.62212,0 -1.53034,-2.12797 -2.01828,-4.72884 z m 62.97691,3.02127 c -5.49672,-1.83224 -6.69601,-10.44141 -1.87726,-13.47603 1.69962,-1.07034 2.96704,-1.07034 4.66666,0 4.08123,2.57016 3.60544,5.77794 -1.10033,7.41838 -4.09357,1.42702 -4.18195,1.5968 -1.7708,3.40182 1.60045,1.19814 4.38468,1.66295 7.53811,1.25846 2.75016,-0.35276 4.7075,-0.16764 4.34965,0.41138 -1.0464,1.69311 -7.95399,2.27 -11.80603,0.98599 z m 1.8723,-10.74287 c -1.5331,-1.53309 -4.0829,0.0534 -4.0829,2.54043 0,1.59071 0.4659,1.64165 2.63339,0.28803 1.53396,-0.95798 2.13912,-2.13884 1.44951,-2.82846 z m 163.91711,9.78378 c -3.6015,-3.60146 -3.3545,-7.43335 0.743,-11.53091 2.6447,-2.64464 4.4258,-3.29105 7.9384,-2.88097 l 4.5287,0.52869 0.8896,-7.11938 c 1.1311,-9.05365 2.4913,-7.93058 2.0457,1.68911 -0.2097,4.52692 0.2061,7.31346 1.0913,7.31346 2.0558,0 1.7603,2.52682 -0.5677,4.85481 -1.7747,1.77468 -2.1431,1.61521 -3.3003,-1.42856 -2.3119,-6.08072 -13.3687,-3.54247 -13.3687,3.06899 0,3.58042 2.7603,5.50286 7.9333,5.52517 3.5469,0.0153 4.232,0.34441 2.7334,1.31292 -3.2435,2.09611 -7.8078,1.52557 -10.6667,-1.33333 z m -785.90479,-0.76191 c -4.3382,-4.3382 -1.65169,-13.90476 3.90476,-13.90476 6.0871,0 8.31716,10.22579 3.03666,13.9244 -3.69075,2.58511 -4.33851,2.58327 -6.94142,-0.0196 z m 5.6782,-1.73652 c 2.8456,-1.80396 1.43428,-8.83491 -1.77344,-8.83491 -2.76004,0 -4.26229,4.32264 -2.81396,8.09698 0.83,2.16294 2.03403,2.35662 4.5874,0.73793 z m 465.89324,2.45688 c -3.86173,-1.55223 -4.36042,-10.20688 -0.66666,-11.56971 1.28333,-0.47349 2.72129,-1.43969 3.19547,-2.14712 1.28301,-1.91409 9.13786,4.17675 9.13786,7.08572 0,1.36351 -1.58092,3.72266 -3.51314,5.24255 -3.909,3.07483 -3.94364,3.08072 -8.15353,1.38856 z m 8.2901,-4.99323 c 0.44433,-1.15793 -0.11413,-3.02738 -1.24111,-4.15433 -1.48929,-1.48929 -2.04898,-1.58219 -2.04898,-0.34009 0,1.06628 -0.9434,1.40948 -2.50878,0.91265 -3.23984,-1.02829 -4.71647,2.53416 -2.12469,5.12593 2.28803,2.28804 6.78965,1.41075 7.92356,-1.54416 z m 332.70995,3.70144 c -2.9399,-2.93989 -3.4019,-6.80164 -1.2865,-10.75432 1.5556,-2.90661 5.284,-3.38149 7.6865,-0.97901 2.3036,2.30365 1.9755,4.37153 -0.3831,2.41409 -1.0906,-0.90517 -2.8906,-1.29746 -4,-0.87177 -2.6161,1.00393 -2.6017,6.71252 0.023,8.89045 3.1696,2.63052 8.6272,-0.37406 8.6272,-4.74954 0,-1.95422 0.576,-3.0846 1.3333,-2.61656 0.7333,0.45322 1.3333,2.31925 1.3333,4.14672 0,2.5312 -1.1014,3.78289 -4.6238,5.25465 -5.8033,2.42476 -5.5267,2.44809 -8.7095,-0.73471 z m -763.19074,-0.77572 c -0.44513,-1.15997 -0.80932,-4.43886 -0.80932,-7.28641 0,-6.10293 3.4205,-8.78344 9.12419,-7.15029 3.49513,1.00076 3.48011,1.02456 -1.12419,1.78004 l -4.66666,0.76572 0.45581,7 c 0.43748,6.71844 -1.22896,9.45365 -2.97983,4.89094 z m -151.81855,-0.89094 c -2.1308,-1.6249 -2.95171,-5.28894 -2.53147,-11.2991 0.24047,-3.43929 7.09236,-7.56783 10.67352,-6.43121 1.98054,0.6286 2.25051,0.0348 1.7875,-3.9313 -0.29998,-2.56945 0.0363,-4.67173 0.74727,-4.67173 0.71097,0 1.65361,3.15 2.09476,7 0.44114,3.85 1.17477,9.4 1.63029,12.33334 0.61696,3.973 0.46517,4.82321 -0.59513,3.33333 -0.78284,-1.1 -1.43254,-3.25701 -1.44376,-4.79335 -0.0107,-1.53634 -1.26142,-3.91644 -2.77821,-5.28912 -2.51681,-2.27768 -3.0702,-2.32118 -6.33333,-0.49792 -3.97648,2.22186 -5.46736,8.16428 -2.84196,11.32768 0.87611,1.05566 3.76947,1.92856 6.42967,1.93979 3.61368,0.0152 4.331,0.34725 2.83674,1.31292 -2.77881,1.79581 -7.07808,1.64769 -9.67589,-0.33333 z m 20.60923,-1.26667 c -2.46857,-2.46857 -1.89563,-8.77104 1.06667,-11.73333 3.48632,-3.48632 4.58785,-3.36834 7.90322,0.84648 3.56447,4.53148 3.50135,7.8188 -0.1999,10.41125 -3.54843,2.48541 -6.59496,2.65063 -8.76999,0.4756 z m 8.20104,-3.98861 c 1.96453,-3.11971 -2.62752,-8.4919 -5.33676,-6.24342 -1.90195,1.57847 -2.43772,6.74748 -0.86263,8.32256 1.46407,1.46408 4.6386,0.3994 6.19939,-2.07914 z m -121.801045,1.58861 c -3.506121,-3.50612 -3.369379,-7.03435 0.444468,-11.4682 2.233779,-2.59694 4.301815,-3.58307 7.333334,-3.49687 4.045391,0.11501 4.222199,-0.0996 4.222199,-5.12411 0,-9.7883 2.328677,-5.3042 2.989112,5.75584 0.361268,6.05001 1.100702,12.05001 1.643188,13.33334 0.562502,1.33069 0.409242,2.33333 -0.35666,2.33333 -0.73865,0 -2.048782,-2.94204 -2.911406,-6.53785 -1.662488,-6.93003 -3.881012,-8.56292 -9.040739,-6.65421 -3.528485,1.30528 -5.2759,7.10458 -2.975793,9.87605 0.905016,1.09047 3.522016,1.99187 5.815557,2.00309 3.182758,0.0156 3.696549,0.32644 2.170074,1.31292 -3.144978,2.03244 -6.437991,1.56202 -9.333334,-1.33333 z m 24.416749,-1.01311 c -2.137671,-1.40576 -4.058591,-7.09674 -3.396505,-10.06261 1.283292,-5.74862 11.802165,-5.23776 15.523441,0.75389 2.27453,3.66226 -1.61235,9.56614 -6.585279,10.00252 -2.177122,0.19104 -4.670868,-0.1212 -5.541657,-0.6938 z m 9.086659,-3.87038 c 1.426627,-1.72826 1.462607,-2.34046 0.16326,-2.77778 -0.916667,-0.30853 -1.666667,-1.37052 -1.666667,-2.36 0,-2.85568 -5.327027,-3.8898 -7.718471,-1.49836 -1.697478,1.69748 -1.79966,2.72015 -0.546576,5.47038 1.807192,3.96636 6.950021,4.58009 9.768454,1.16576 z m 860.563287,-8.34015 c 0.69667,-0.67302 4.26667,-1.56498 7.93333,-1.98216 l 6.66667,-0.75851 -6.66667,1.95644 c -7.8777,2.31183 -9.70124,2.49208 -7.93333,0.78423 z M 323.45,239.51013 c 0.83477,-2.17539 12.09472,-7.07654 13.35721,-5.81403 0.41127,0.41127 -2.15211,2.11727 -5.69639,3.79111 -3.54428,1.67384 -6.89456,3.27412 -7.44505,3.55616 -0.55049,0.28204 -0.6476,-0.40792 -0.21577,-1.53324 z m 243.21668,0.7784 c 0,-0.73156 2.1,-1.57527 4.66667,-1.87491 2.56667,-0.29965 4.66667,-0.0653 4.66667,0.52079 0,0.58608 -1.15094,1.0656 -2.55762,1.0656 -1.40669,0 -3.50669,0.36418 -4.66666,0.80932 -1.15999,0.44512 -2.10906,0.21077 -2.10906,-0.5208 z m 321.00001,-7.83823 c 0.91667,-0.36988 2.41667,-0.36988 3.33334,0 0.91666,0.36988 0.16666,0.67252 -1.66667,0.67252 -1.83333,0 -2.58333,-0.30264 -1.66667,-0.67252 z M 88.213385,212.95718 c -0.295065,-8.81696 -2.800442,-14.02064 -9.884004,-20.52912 -7.649547,-7.02852 -14.971819,-10.78161 -23.952001,-12.27681 -6.23416,-1.03799 -6.507497,-1.2084 -2.377378,-1.48224 7.849238,-0.52043 9.691826,0.012 18.666667,5.3942 9.948248,5.96592 18.666667,13.72908 18.666667,16.62141 0,1.09013 0.6,1.98205 1.333333,1.98205 0.733334,0 1.333334,-0.62509 1.333334,-1.38908 0,-3.25105 12.174557,-12.49881 20.312087,-15.42901 7.91064,-2.84849 35.86247,-2.65812 44.64022,0.30404 8.79693,2.96861 13.45604,5.48521 19.89438,10.74584 l 5.51334,4.50484 0.79102,-3.15167 c 1.43244,-5.7073 5.94382,-9.80737 14.03901,-12.75902 23.22908,-8.46975 45.58971,-4.75323 54.76219,9.10192 l 3.68121,5.56052 2.99284,-6.41086 c 7.22225,-15.47052 20.03571,-32.50849 36.80842,-48.94393 15.05681,-14.75404 27.23196,-24.22031 27.23196,-21.17305 0,0.62215 -1.95,2.2572 -4.33334,3.63345 -2.38333,1.37626 -8.53333,6.79404 -13.66666,12.03952 -5.13334,5.24549 -13.08095,12.95143 -17.66136,17.12431 -4.58042,4.17288 -8.31786,7.89294 -8.30542,8.2668 0.012,0.37385 -3.0672,5.25864 -6.84364,10.85508 -8.28693,12.28069 -14.60365,25.78382 -14.22153,30.40102 l 0.28024,3.38595 35.37585,0.0392 c 19.45672,0.0216 51.87586,0.15359 72.04252,0.29344 l 36.66667,0.25427 -36.24335,0.39416 -36.24333,0.39417 -0.57508,2.97907 -0.57509,2.97906 -0.18158,-3 -0.18157,-3.00004 h -35.45816 c -34.33683,0 -35.48022,0.0844 -36.15551,2.66667 -0.38355,1.46667 -1.4712,2.66667 -2.41701,2.66667 -1.06323,0 -1.45347,-1.01794 -1.02232,-2.66667 0.68445,-2.61735 0.0409,-2.66667 -34.7915,-2.66667 -34.59994,0 -35.48884,0.0668 -35.48884,2.66667 0,1.46667 -0.6,2.66667 -1.33333,2.66667 -0.73333,0 -1.33333,-1.2 -1.33333,-2.66667 0,-2.61428 -0.8889,-2.66667 -45.24886,-2.66667 H 89.502292 l -0.537761,4.33334 c -0.410242,3.30576 -0.588363,2.82134 -0.751146,-2.04283 z m 91.786625,-6.88959 c 0,-4.7978 -7.15712,-10.77374 -18.66667,-15.58601 -9.36739,-3.91661 -11.09652,-4.19061 -27.33334,-4.33135 -15.07421,-0.13066 -18.11533,0.2179 -23.33333,2.67423 -7.45343,3.50865 -20.000001,15.50272 -20.000001,19.11927 0,0.93628 14.571871,1.38961 44.666671,1.38961 h 44.66667 z m 73.83662,-1.06758 c -1.20817,-6.85823 -7.21176,-14.52016 -14.19213,-18.11239 -8.66839,-4.46091 -24.35311,-4.69171 -37.70305,-0.55481 -11.65876,3.61282 -15.45538,7.34838 -16.60916,16.34202 l -0.8542,6.65851 h 35.06096 35.06096 z m 552.83006,9.66666 v -4 h -38 -38 v 3.33334 c 0,4.14805 -2.32759,4.41492 -2.90727,0.33333 l -0.42607,-3 -36.33333,-0.35476 c -31.7346,-0.30987 -36.33333,-0.0989 -36.33333,1.66667 0,1.11178 -0.6,2.02142 -1.33334,2.02142 -0.73333,0 -1.33333,-0.9 -1.33333,-2 0,-1.73278 -5.27996,-2 -39.51968,-2 -36.07414,0 -39.67411,0.20343 -41.29092,2.33334 -1.68691,2.22222 -1.77328,2.22222 -1.81367,0 -0.0393,-2.16652 -2.75255,-2.33334 -37.94967,-2.33334 h -37.90727 l -0.59013,3 -0.59013,3 -0.99144,-3 -0.99144,-3 -42.17783,-0.31364 -42.17783,-0.31364 41.75046,-0.37213 c 40.33573,-0.35953 41.72318,-0.45805 40.94576,-2.90749 -0.44258,-1.39444 -0.24428,-2.8817 0.44065,-3.305 0.68493,-0.42332 1.62077,0.72618 2.07964,2.55445 l 0.83429,3.32412 h 79.47461 79.4746 l -0.8,-4 c -1.04759,-5.23793 1.32063,-5.21791 2.47125,0.0209 l 0.88315,4.02091 36.88947,-0.35424 36.88946,-0.35427 0.40798,-3.5224 c 0.8736,-7.54252 -4.98332,-15.86922 -25.18902,-35.81093 -16.05884,-15.84904 -21.53269,-20.3684 -30.37276,-25.0766 -5.93093,-3.1588 -11.13301,-6.3088 -11.56021,-7 -1.32152,-2.13828 2.11984,-1.3867 5.86664,1.28125 1.96035,1.39589 6.88637,4.11093 10.94671,6.03341 9.79678,4.63857 44.24728,38.50283 49.44496,48.60359 l 3.54429,6.8877 4.5453,-7.2666 c 4.62266,-7.39032 10.09736,-13.80135 18.83608,-22.05764 7.94789,-7.50912 5.52138,-2.38595 -2.91619,6.15704 -8.37259,8.47718 -16.11863,19.68013 -18.64794,26.97014 -0.86488,2.49278 -1.5725,4.7605 -1.5725,5.03939 0,0.27889 17.36963,0.33936 38.59917,0.13437 37.63174,-0.36337 38.61711,-0.30588 39.31512,2.29395 1.12418,4.18712 0.87494,7.33333 -0.58096,7.33333 -0.73333,0 -1.33333,-1.8 -1.33333,-4 z m 258.59441,0.66667 -0.5944,-4 -50.3333,-0.34937 -50.33337,-0.34936 v 3.34936 c 0,1.84216 -0.6,3.34937 -1.33333,3.34937 -0.73334,0 -1.33334,-1.5 -1.33334,-3.33333 v -3.33334 h -38.57811 -38.5781 l -0.55546,3.66667 -0.55545,3.66667 -0.19977,-3.66667 -0.19978,-3.66667 h -35.55556 c -19.55555,0 -35.24944,-0.3061 -34.87532,-0.68024 0.37413,-0.37412 34.07414,-0.67854 74.8889,-0.67649 56.57614,0.003 74.20865,-0.37409 74.20865,-1.58643 0,-1.22588 0.36655,-1.22362 1.6,0.009 1.93978,1.93977 100.45694,2.33197 101.64804,0.40465 0.4063,-0.65744 0.3667,-4.10744 -0.088,-7.66667 -0.7437,-5.8208 -1.7818,-7.4173 -10.3267,-15.88192 -15.506,-15.36013 -32.7771,-27.35654 -56.16663,-39.01305 -11.73333,-5.84746 -23.73333,-11.37619 -26.66667,-12.28607 -2.93333,-0.90988 -8.03333,-2.99289 -11.33333,-4.6289 -3.3,-1.63601 -9,-3.41332 -12.66667,-3.94957 -3.66667,-0.53625 -7.68983,-1.52253 -8.94036,-2.19173 C 933.90881,120.12044 900.72707,116 885.88699,116 c -29.44539,0 -49.26109,4.26915 -75.07343,16.17404 -12.35039,5.69611 -12.14687,5.62871 -12.14687,4.02235 0,-1.52189 28.10013,-14.06182 37.33333,-16.66032 28.04397,-7.8924 74.83679,-7.40556 105.29058,1.09547 4.00981,1.11932 8.37976,2.03513 9.71099,2.03513 1.33124,0 5.25048,1.41809 8.70943,3.15131 3.45896,1.73322 8.68901,3.91408 11.62234,4.84636 7.63054,2.42516 45.76534,21.47297 53.48704,26.71603 9.6588,6.55838 32.9729,25.86336 36.9671,30.61018 5.1947,6.17356 9.8756,24.00946 6.3011,24.00946 -0.6846,0 -1.4671,1.65 -1.7389,3.66666 l -0.4942,3.66667 z m -659.92775,-2.07869 c 0,-0.77662 0.6,-1.0412 1.33333,-0.58798 0.73333,0.45323 1.33333,1.08864 1.33333,1.41203 0,0.32339 -0.6,0.58797 -1.33333,0.58797 -0.73333,0 -1.33333,-0.63541 -1.33333,-1.41202 z m -78.00001,-9.25464 c 0.45323,-0.73334 1.42404,-1.33334 2.15738,-1.33334 0.73333,0 0.96252,0.6 0.50929,1.33334 -0.45323,0.73333 -1.42404,1.33333 -2.15737,1.33333 -0.73334,0 -0.96252,-0.6 -0.5093,-1.33333 z m 634.82928,-1.10048 c -0.59002,-1.70527 -0.71795,-3.45527 -0.28434,-3.8889 1.38215,-1.38214 2.35367,0.65588 1.84715,3.8749 l -0.49008,3.11448 z M 761.33336,164.19997 c 0,-3.40642 32.38164,-27.61219 34.87617,-26.07049 0.93507,0.57791 0.0447,1.68779 -2.35248,2.9323 -5.48636,2.84832 -21.80529,15.29015 -26.43981,20.15815 -3.88563,4.08137 -6.08388,5.15813 -6.08388,2.98004 z M 646.69954,128.59969 c -5.48195,-3.26316 -9.62148,-5.93302 -9.19897,-5.93302 2.60981,0 10.78964,3.74949 16.48165,7.55489 9.72176,6.4995 4.35168,5.30356 -7.28268,-1.62187 z m -321.3662,-7.05 c 0,-0.95672 13.35819,-8.21635 15.1186,-8.21635 0.3409,0 5.62867,-2.34576 11.7506,-5.2128 35.67823,-16.708889 52.16975,-21.227884 87.13081,-23.875521 16.18734,-1.225885 50.6159,-0.245347 55.33333,1.575916 1.1,0.424679 7.7,1.372256 14.66667,2.105727 26.48805,2.788741 64.09604,10.404555 86.66667,17.550448 26.08911,8.25985 29.44081,9.40371 33.0098,11.2655 6.14889,3.20762 2.15784,2.21896 -21.55523,-5.33963 -27.52168,-8.77259 -44.51135,-12.86511 -71.61955,-17.251929 -41.83287,-6.769656 -53.27297,-7.920296 -78.50169,-7.895656 -36.80264,0.03594 -58.24883,3.716905 -82.73386,14.200195 -14.83639,6.35222 -41.73276,18.67455 -45.58139,20.88271 -2.82484,1.62075 -3.68476,1.67009 -3.68476,0.21139 z"
         id="path380" />
      <path
         style="fill:#a21a1d;stroke-width:1.33333"
         d="m 587.33335,634.10969 c -3.99244,-1.88951 -3.98571,-1.89329 3.55761,-2.00137 7.97734,-0.11427 11.77572,-1.01984 11.77572,-2.80734 0,-1.50988 -10.77022,-5.32033 -13.97496,-4.94428 -2.96241,0.34763 -3.72864,-3.04603 -1.84028,-8.15075 1.34891,-3.64644 3.86206,-2.67297 2.87214,1.11252 -0.70806,2.70759 -0.11227,3.12438 6.54649,4.57971 1.98185,0.43315 5.28185,2.24772 7.33333,4.03239 l 3.72995,3.24485 -2.66667,2.68743 c -3.52732,3.55479 -12.19554,4.67841 -17.33333,2.24684 z m 9.66667,-21.83726 c -4.95,-0.21684 -9,-0.96684 -9,-1.66666 0,-0.69983 1.05,-1.32356 2.33333,-1.38608 5.10897,-0.2489 17.03424,0.37141 17.57777,0.91433 1.61655,1.61468 -2.85616,2.49127 -10.9111,2.13841 z m -195.8523,-26.88932 -3.14771,-2.61689 4,-3.33515 c 2.2,-1.83433 4.45,-3.35673 5,-3.3831 1.68095,-0.0807 1.11068,3.68517 -0.66666,4.40234 -0.91667,0.36988 88.18841,0.71988 198.01129,0.77778 197.80886,0.10426 199.66274,0.0809 198.05049,-2.50076 -2.33081,-3.73223 -0.18256,-5.05092 2.87751,-1.76632 1.41777,1.5218 3.31938,3.01412 4.2258,3.31626 2.43393,0.81131 0.65968,4.16407 -3.33495,6.30192 -3.69823,1.97924 -6.79959,0.81524 -3.45819,-1.29792 1.2148,-0.76826 -74.02384,-1.24818 -197.66344,-1.26084 -176.90206,-0.0181 -199.53746,0.20724 -198.85735,1.97959 1.0686,2.78473 -1.2931,2.49547 -5.03679,-0.61691 z m -0.17909,-380.3831 c -3.33266,-7.2295 -6.18814,-11.05642 -22.63341,-30.33334 C 345.74973,136.47039 318.741,116.81848 255.33334,85.16884 217.76051,66.41454 184.8677,51.662155 169.03823,46.465612 157.11986,42.553012 130.20195,36.359813 111.16529,33.150368 97.048931,30.770452 88.257167,30.23365 61.668178,30.128212 43.885673,30.057696 29.335673,29.619134 29.334844,29.153632 c -0.0054,-3.015631 45.03478,-3.20748 69.022756,-0.294004 22.32175,2.711102 60.78358,10.972737 74.97574,16.104854 29.3124,10.59984 116.1698,52.812671 136,66.096198 22.52427,15.0882 35.71815,24.45499 42.5416,30.20178 11.22318,9.45227 46.01703,49.87315 50.26361,58.39245 2.52382,5.06322 3.91258,4.7035 5.04521,-1.30684 0.62888,-3.33721 5.2362,-8.68993 19.81781,-23.02402 22.41978,-22.03922 26.4405,-25.30858 39.66511,-32.25281 5.5,-2.88804 11.2,-5.9217 12.66667,-6.74149 30.42249,-17.00428 56.70108,-22.66532 102,-21.97327 26.83297,0.40994 48.03075,2.99265 68,8.28503 7.7,2.0407 17,4.3115 20.66667,5.04623 10.5436,2.11271 41.63925,11.83648 53.33333,16.6776 13.07249,5.41176 14.15158,5.98304 33.65273,17.81627 16.12865,9.78678 19.27721,11.55708 29.83674,16.77588 10.4302,5.15486 26.71516,25.77816 24.63531,31.19816 -1.27125,3.31281 -3.31895,1.94206 -4.21227,-2.81975 -0.98938,-5.27388 -16.01365,-22.55612 -20.97149,-24.12328 -1.61756,-0.51131 -4.79765,-2.34331 -7.06687,-4.07113 -2.26922,-1.72782 -4.6949,-3.14148 -5.39041,-3.14148 -0.69551,0 -9.85769,-5.34479 -20.36043,-11.8773 -25.72769,-16.00216 -52.41909,-26.27979 -90.12331,-34.70233 -5.86666,-1.31052 -15.46666,-3.5944 -21.33333,-5.07529 -16.48573,-4.16139 -30.6329,-6.10073 -46.79532,-6.41486 -8.13743,-0.15815 -18.33743,-0.67726 -22.66667,-1.15356 -4.98805,-0.54879 -12.02277,-0.11771 -19.20468,1.17684 -6.23333,1.12357 -13.73333,2.04787 -16.66667,2.05401 -9.77837,0.0205 -26.80756,5.11823 -42.1538,12.61892 -35.23912,17.22361 -41.40039,21.31521 -60.51733,40.18866 -19.67335,19.42277 -22.79794,23.34279 -25.2044,31.62073 -1.20943,4.1603 -2.73822,7.56418 -3.39731,7.56418 -0.65908,0 -2.65043,-3.15 -4.42521,-7 z"
         id="path378" />
    </g>
  </g>
</svg>
